<svg width="240" height="241" viewBox="0 0 240 241" fill="none" xmlns="http://www.w3.org/2000/svg">
<g clip-path="url(#clip0_30312_14)">
<path d="M120 240.91C186.274 240.91 240 187.184 240 120.91C240 54.6357 186.274 0.909912 120 0.909912C53.7258 0.909912 0 54.6357 0 120.91C0 187.184 53.7258 240.91 120 240.91Z" fill="#CEE5FF"/>
<path d="M195.865 19.4399H56.2715C49.6441 19.4399 44.2715 24.8125 44.2715 31.4399V186.48C44.2715 193.107 49.6441 198.48 56.2715 198.48H195.865C202.493 198.48 207.865 193.107 207.865 186.48V31.4399C207.865 24.8125 202.493 19.4399 195.865 19.4399Z" fill="#133578"/>
<path d="M183.594 6.49438H44C37.3726 6.49438 32 11.867 32 18.4944V173.534C32 180.162 37.3726 185.534 44 185.534H183.594C190.221 185.534 195.594 180.162 195.594 173.534V18.4944C195.594 11.867 190.221 6.49438 183.594 6.49438Z" fill="white"/>
<path d="M32 18.4944C32 11.867 37.3726 6.49438 44 6.49438H183.594C190.222 6.49438 195.594 11.867 195.594 18.4944V30.8014H32V18.4944Z" fill="#0075FF"/>
<path d="M66.3609 67.5273H55.3706C50.9523 67.5273 47.3706 71.1091 47.3706 75.5273V86.5176C47.3706 90.9359 50.9523 94.5176 55.3706 94.5176H66.3609C70.7792 94.5176 74.3609 90.9359 74.3609 86.5176V75.5273C74.3609 71.1091 70.7792 67.5273 66.3609 67.5273Z" fill="#EFF0F7"/>
<path d="M66.3609 102.518H55.3706C50.9523 102.518 47.3706 106.1 47.3706 110.518V121.508C47.3706 125.927 50.9523 129.508 55.3706 129.508H66.3609C70.7792 129.508 74.3609 125.927 74.3609 121.508V110.518C74.3609 106.1 70.7792 102.518 66.3609 102.518Z" fill="#EFF0F7"/>
<path d="M66.3609 137.508H55.3706C50.9523 137.508 47.3706 141.09 47.3706 145.508V156.498C47.3706 160.917 50.9523 164.498 55.3706 164.498H66.3609C70.7792 164.498 74.3609 160.917 74.3609 156.498V145.508C74.3609 141.09 70.7792 137.508 66.3609 137.508Z" fill="#EFF0F7"/>
<path d="M100.351 67.5273H89.3608C84.9426 67.5273 81.3608 71.1091 81.3608 75.5273V86.5176C81.3608 90.9359 84.9426 94.5176 89.3608 94.5176H100.351C104.769 94.5176 108.351 90.9359 108.351 86.5176V75.5273C108.351 71.1091 104.769 67.5273 100.351 67.5273Z" fill="#EFF0F7"/>
<path d="M100.351 102.518H89.3608C84.9426 102.518 81.3608 106.1 81.3608 110.518V121.508C81.3608 125.927 84.9426 129.508 89.3608 129.508H100.351C104.769 129.508 108.351 125.927 108.351 121.508V110.518C108.351 106.1 104.769 102.518 100.351 102.518Z" fill="#4B3CFB"/>
<path d="M100.351 137.508H89.3608C84.9426 137.508 81.3608 141.09 81.3608 145.508V156.498C81.3608 160.917 84.9426 164.498 89.3608 164.498H100.351C104.769 164.498 108.351 160.917 108.351 156.498V145.508C108.351 141.09 104.769 137.508 100.351 137.508Z" fill="#EFF0F7"/>
<path d="M134.341 67.5273H123.351C118.933 67.5273 115.351 71.1091 115.351 75.5273V86.5176C115.351 90.9359 118.933 94.5176 123.351 94.5176H134.341C138.76 94.5176 142.341 90.9359 142.341 86.5176V75.5273C142.341 71.1091 138.76 67.5273 134.341 67.5273Z" fill="#EFF0F7"/>
<path d="M134.341 102.518H123.351C118.933 102.518 115.351 106.1 115.351 110.518V121.508C115.351 125.927 118.933 129.508 123.351 129.508H134.341C138.76 129.508 142.341 125.927 142.341 121.508V110.518C142.341 106.1 138.76 102.518 134.341 102.518Z" fill="#EFF0F7"/>
<path d="M134.341 137.508H123.351C118.933 137.508 115.351 141.09 115.351 145.508V156.498C115.351 160.917 118.933 164.498 123.351 164.498H134.341C138.76 164.498 142.341 160.917 142.341 156.498V145.508C142.341 141.09 138.76 137.508 134.341 137.508Z" fill="#EFF0F7"/>
<path d="M168.331 67.5273H157.341C152.923 67.5273 149.341 71.1091 149.341 75.5273V86.5176C149.341 90.9359 152.923 94.5176 157.341 94.5176H168.331C172.75 94.5176 176.331 90.9359 176.331 86.5176V75.5273C176.331 71.1091 172.75 67.5273 168.331 67.5273Z" fill="#EFF0F7"/>
<path d="M168.331 102.518H157.341C152.923 102.518 149.341 106.1 149.341 110.518V121.508C149.341 125.927 152.923 129.508 157.341 129.508H168.331C172.75 129.508 176.331 125.927 176.331 121.508V110.518C176.331 106.1 172.75 102.518 168.331 102.518Z" fill="#EFF0F7"/>
<path d="M168.331 137.508H157.341C152.923 137.508 149.341 141.09 149.341 145.508V156.498C149.341 160.917 152.923 164.498 157.341 164.498H168.331C172.75 164.498 176.331 160.917 176.331 156.498V145.508C176.331 141.09 172.75 137.508 168.331 137.508Z" fill="#EFF0F7"/>
<path opacity="0.6" d="M70.3609 47.4214H51.3706C49.1615 47.4214 47.3706 49.2122 47.3706 51.4214C47.3706 53.6305 49.1615 55.4214 51.3706 55.4214H70.3609C72.57 55.4214 74.3609 53.6305 74.3609 51.4214C74.3609 49.2122 72.57 47.4214 70.3609 47.4214Z" fill="#A0A3BD"/>
<path opacity="0.6" d="M104.351 47.4214H85.3608C83.1517 47.4214 81.3608 49.2122 81.3608 51.4214C81.3608 53.6305 83.1517 55.4214 85.3608 55.4214H104.351C106.56 55.4214 108.351 53.6305 108.351 51.4214C108.351 49.2122 106.56 47.4214 104.351 47.4214Z" fill="#A0A3BD"/>
<path opacity="0.6" d="M138.341 47.4214H119.351C117.142 47.4214 115.351 49.2122 115.351 51.4214C115.351 53.6305 117.142 55.4214 119.351 55.4214H138.341C140.55 55.4214 142.341 53.6305 142.341 51.4214C142.341 49.2122 140.55 47.4214 138.341 47.4214Z" fill="#A0A3BD"/>
<path opacity="0.6" d="M172.331 47.4214H153.341C151.132 47.4214 149.341 49.2122 149.341 51.4214C149.341 53.6305 151.132 55.4214 153.341 55.4214H172.331C174.54 55.4214 176.331 53.6305 176.331 51.4214C176.331 49.2122 174.54 47.4214 172.331 47.4214Z" fill="#A0A3BD"/>
</g>
<defs>
<clipPath id="clip0_30312_14">
<rect width="240" height="240" fill="white" transform="translate(0 0.909912)"/>
</clipPath>
</defs>
</svg>
