<svg width="270" height="241" viewBox="0 0 270 241" fill="none" xmlns="http://www.w3.org/2000/svg">
<g clip-path="url(#clip0_30312_38)">
<g clip-path="url(#clip1_30312_38)">
<g clip-path="url(#clip2_30312_38)">
<path d="M134.947 240.91C201.195 240.91 254.9 187.184 254.9 120.91C254.9 54.6357 201.195 0.909912 134.947 0.909912C68.6987 0.909912 14.9939 54.6357 14.9939 120.91C14.9939 187.184 68.6987 240.91 134.947 240.91Z" fill="#CEE5FF"/>
<path d="M175.214 104.256L34.4524 79.4258C26.294 77.9867 18.5147 83.4338 17.0767 91.5924L2.60385 173.704C1.16584 181.862 6.61372 189.643 14.772 191.082L155.534 215.911C163.692 217.351 171.472 211.903 172.91 203.745L187.382 121.634C188.82 113.475 183.372 105.695 175.214 104.256Z" fill="#133578"/>
<path d="M184.21 96.2561L43.4477 71.4263C35.2894 69.9872 27.51 75.4343 26.072 83.5928L11.5992 165.704C10.1612 173.863 15.6091 181.643 23.7674 183.082L164.529 207.912C172.688 209.351 180.467 203.904 181.905 195.745L196.378 113.634C197.816 105.476 192.368 97.6952 184.21 96.2561Z" fill="white"/>
<path d="M54.2959 97.5144L40.4759 95.0766C38.8442 94.7887 37.2883 95.8782 37.0007 97.5099L35.5018 106.014C35.2142 107.646 36.3037 109.202 37.9354 109.49L51.7554 111.928C53.3871 112.215 54.943 111.126 55.2306 109.494L56.7295 100.99C57.0171 99.3583 55.9276 97.8022 54.2959 97.5144Z" fill="#4B3CFB"/>
<path d="M91.5678 165.843L25.5501 154.198C23.9184 153.91 22.3626 155 22.075 156.631L21.0759 162.299C20.7883 163.931 21.8779 165.487 23.5096 165.775L89.5273 177.42C91.1589 177.708 92.7148 176.618 93.0024 174.987L94.0014 169.319C94.289 167.687 93.1994 166.131 91.5678 165.843Z" fill="#DCDDEB"/>
<g style="mix-blend-mode:multiply">
<path d="M136.6 188.373C141.213 189.186 145.613 186.105 146.426 181.489C147.24 176.874 144.159 172.473 139.546 171.659C134.932 170.845 130.533 173.927 129.719 178.542C128.906 183.158 131.986 187.559 136.6 188.373Z" fill="#0075FF"/>
</g>
<g style="mix-blend-mode:multiply">
<path d="M148.263 190.43C152.876 191.243 157.276 188.162 158.089 183.546C158.903 178.931 155.822 174.53 151.209 173.716C146.595 172.902 142.196 175.984 141.383 180.599C140.569 185.215 143.65 189.616 148.263 190.43Z" fill="#CEE5FF"/>
</g>
<path d="M52.7998 130.639L30.5567 126.716C28.8381 126.413 27.1992 127.56 26.8963 129.279L26.8963 129.279C26.5934 130.998 27.741 132.637 29.4597 132.94L51.7028 136.863C53.4214 137.167 55.0603 136.019 55.3632 134.3C55.6662 132.582 54.5185 130.943 52.7998 130.639Z" fill="#EFF0F7"/>
<path d="M90.1267 137.224L67.8836 133.301C66.165 132.998 64.5261 134.145 64.2232 135.864L64.2232 135.864C63.9203 137.583 65.0679 139.222 66.7866 139.525L89.0297 143.448C90.7484 143.752 92.3872 142.604 92.6901 140.885C92.9931 139.167 91.8454 137.528 90.1267 137.224Z" fill="#EFF0F7"/>
<path d="M127.454 143.808L105.211 139.885C103.492 139.582 101.854 140.729 101.551 142.448L101.551 142.448C101.248 144.167 102.395 145.806 104.114 146.109L126.357 150.032C128.076 150.336 129.715 149.188 130.018 147.469C130.32 145.751 129.173 144.112 127.454 143.808Z" fill="#EFF0F7"/>
<path d="M164.78 150.392L142.537 146.469C140.818 146.166 139.179 147.313 138.877 149.032L138.877 149.032C138.574 150.751 139.721 152.39 141.44 152.693L163.683 156.616C165.402 156.92 167.041 155.772 167.343 154.053C167.646 152.335 166.499 150.696 164.78 150.392Z" fill="#EFF0F7"/>
<path d="M227.612 27.4971L86.8503 52.3269C78.692 53.766 73.2441 61.5464 74.6821 69.7049L89.1549 151.816C90.593 159.975 98.3723 165.422 106.531 163.983L247.292 139.153C255.451 137.714 260.899 129.933 259.461 121.775L244.988 39.6637C243.55 31.5052 235.77 26.058 227.612 27.4971Z" fill="#133578"/>
<path d="M234.151 18.1734L93.3894 43.0032C85.2311 44.4423 79.7832 52.2227 81.2212 60.3812L95.694 142.492C97.132 150.651 104.911 156.098 113.07 154.659L253.832 129.829C261.99 128.39 267.438 120.61 266 112.451L251.527 30.3399C250.089 22.1814 242.31 16.7343 234.151 18.1734Z" fill="#0075FF"/>
<path d="M252.493 35.825L82.1877 65.8662L85.7687 86.1829L256.074 56.1417L252.493 35.825Z" fill="#133578"/>
<path d="M141.22 92.13L100.178 99.3695C98.4597 99.6727 97.312 101.312 97.6149 103.03L97.6149 103.03C97.9179 104.749 99.5567 105.897 101.275 105.594L142.317 98.354C144.035 98.0508 145.183 96.4118 144.88 94.693C144.577 92.9743 142.938 91.8268 141.22 92.13Z" fill="#133578"/>
<path d="M178.261 85.5962L153.09 90.0363C151.371 90.3394 150.224 91.9785 150.527 93.6972L150.527 93.6972C150.829 95.4159 152.468 96.5634 154.187 96.2603L179.358 91.8202C181.077 91.517 182.224 89.878 181.922 88.1592C181.619 86.4405 179.98 85.293 178.261 85.5962Z" fill="#133578"/>
</g>
</g>
</g>
<defs>
<clipPath id="clip0_30312_38">
<rect width="270" height="240" fill="white" transform="translate(0 0.909912)"/>
</clipPath>
<clipPath id="clip1_30312_38">
<rect width="270" height="240" fill="white" transform="translate(0 0.909912)"/>
</clipPath>
<clipPath id="clip2_30312_38">
<rect width="270" height="240" fill="white" transform="translate(0 0.909912)"/>
</clipPath>
</defs>
</svg>
