<svg width="518" height="677" viewBox="0 0 518 677" fill="none" xmlns="http://www.w3.org/2000/svg">
<g clip-path="url(#clip0_30312_1586)">
<g clip-path="url(#clip1_30312_1586)">
<g clip-path="url(#clip2_30312_1586)">
<mask id="mask0_30312_1586" style="mask-type:alpha" maskUnits="userSpaceOnUse" x="0" y="0" width="518" height="677">
<path d="M518 0.77002H0V676.77H518V0.77002Z" fill="#211F54"/>
</mask>
<g mask="url(#mask0_30312_1586)">
<path d="M67.4787 762.208C67.4787 762.208 44.3947 642.714 44.3332 618.145C44.2593 584.14 70.3335 570.602 70.3335 570.602L60.2065 541.77H115.886L107.088 570.406C107.088 570.406 136.436 585.934 132.338 621.203C124.684 687.136 112.502 762.159 112.502 762.159L67.4787 762.208Z" fill="#383669"/>
<path d="M209.857 68.644H-20.5117V481.826H209.857V68.644Z" fill="#504E83"/>
<path d="M198.267 80.6226H-11.3174V469.504H198.267V80.6226Z" fill="#383669"/>
<path d="M219.6 485.533L209.858 481.812V61.6401H219.6V485.533Z" fill="#36346B"/>
<path d="M40.0729 331.819L94.5795 281.311C101.471 274.915 110.493 268.019 119.358 271.162C123.634 272.726 126.845 276.322 131.027 278.058C139.375 281.53 148.93 276.494 155.351 270.146C161.773 263.797 166.848 255.822 174.632 251.209C182.417 246.596 194.508 247.175 198.361 255.353V310.333L119.17 344.141L40.0729 331.819Z" fill="#423F76"/>
<path d="M-11.3174 300.215C8.74674 292.068 28.7638 298.996 43.111 315.18C46.1339 318.589 48.8905 322.529 53.0412 324.406C58.6641 326.955 65.1642 325.047 71.2884 324.406C79.7156 323.576 88.2085 325.089 95.8289 328.775C103.449 332.462 109.901 338.18 114.471 345.297L47.4966 378.135L-11.3174 377.713V300.215Z" fill="#8689AA"/>
<path d="M198.283 300.466C185.063 294.102 173.441 301.796 161.256 309.958C149.07 318.121 137.762 328.566 123.446 331.85C113.891 334.039 103.648 332.82 94.4224 336.104C75.627 342.796 64.663 366.643 44.7869 367.784C33.9639 368.41 24.2529 361.858 14.5889 356.932C4.925 352.007 -2.64013 347.347 -11.3174 353.93V469.504H198.283V300.466Z" fill="#6E7191"/>
<path d="M172.422 200.376C176.77 181.808 165.218 163.236 146.62 158.895C128.022 154.553 109.42 166.086 105.071 184.654C100.723 203.222 112.274 221.794 130.873 226.135C149.471 230.477 168.073 218.944 172.422 200.376Z" fill="#747799"/>
<path d="M202.825 192.492H-11.3174V196.636H202.825V192.492Z" fill="#504E83"/>
<path d="M202.825 285.093H-11.3174V289.237H202.825V285.093Z" fill="#504E83"/>
<path d="M202.825 377.713H-11.3174V381.857H202.825V377.713Z" fill="#6E7191"/>
<path d="M88.1882 194.556V480.529H98.7763V194.556H88.1882Z" fill="#504E83"/>
<path d="M33.8388 80.6226H29.046V194.571H33.8388V80.6226Z" fill="#504E83"/>
<path d="M75.2202 80.6226H70.4274V194.571H75.2202V80.6226Z" fill="#504E83"/>
<path d="M116.585 80.6226H111.793V194.571H116.585V80.6226Z" fill="#504E83"/>
<path d="M157.966 80.6226H153.173V194.571H157.966V80.6226Z" fill="#504E83"/>
<path d="M219.6 57.3701H-30.2688V68.6445H219.6V57.3701Z" fill="#36346B"/>
<path d="M226.194 486.923H-37.1766V497.431H226.194V486.923Z" fill="#6E7191"/>
<path d="M209.858 481.809L226.194 486.922H-37.1766L-20.5271 481.809H209.858Z" fill="#504E83"/>
<path d="M146.176 290.762C137.922 292.075 134.225 302.224 134.946 310.559C135.666 318.893 139.096 327.025 138.172 335.344C137.013 345.899 129.025 354.812 128.086 365.398C126.989 377.908 135.823 388.932 138.47 401.176C139.754 407.134 139.566 413.42 141.79 419.096C143.678 423.932 147.187 427.964 151.721 430.504C156.254 433.043 161.53 433.933 166.647 433.021C171.765 432.109 176.407 429.453 179.78 425.504C183.154 421.556 185.05 416.561 185.145 411.372C185.333 401.786 179.413 392.763 180.133 383.225C180.666 376.157 184.832 369.464 183.923 362.443C182.874 354.077 175.105 348.15 172.364 340.175C169.623 332.201 172.27 323.428 171.315 315.046C169.623 300.019 161.275 289.542 146.176 290.762Z" fill="#05C168"/>
<path d="M103.964 363.429C102.554 377.361 108.663 393.734 115.883 405.759C123.151 417.85 134.084 427.318 147.099 432.795C148.556 433.405 150.373 433.921 151.61 432.936C152.046 432.456 152.372 431.887 152.567 431.269C152.762 430.651 152.82 429.998 152.738 429.355C152.835 414.58 148.136 400.171 139.343 388.286C130.55 376.401 118.138 367.68 103.964 363.429Z" fill="#05C168"/>
<g opacity="0.1">
<path opacity="0.1" d="M103.964 363.428C102.554 377.361 108.663 393.733 115.883 405.758C123.151 417.849 134.084 427.318 147.099 432.795C148.556 433.405 150.373 433.921 151.61 432.936C152.046 432.455 152.372 431.887 152.567 431.268C152.762 430.65 152.82 429.997 152.738 429.355C152.835 414.58 148.136 400.17 139.343 388.285C130.55 376.401 118.138 367.679 103.964 363.428Z" fill="black"/>
</g>
<path d="M164.704 461.911C164.536 461.669 164.399 461.406 164.297 461.129L163.31 458.846C162.464 456.86 161.211 453.999 159.629 450.496C151.327 432.172 141.132 414.762 129.212 398.549C126.941 395.422 125.062 392.951 123.73 391.247L122.164 389.261C121.98 389.037 121.818 388.796 121.678 388.541C121.678 388.541 121.913 388.729 122.289 389.167L123.856 391.059C125.265 392.701 127.207 395.14 129.557 398.221C141.79 414.289 152.054 431.76 160.131 450.261C161.697 453.811 162.84 456.704 163.592 458.737L164.454 461.082C164.565 461.349 164.649 461.627 164.704 461.911Z" fill="#EFF0F7"/>
<path d="M155.745 329.198C155.821 329.643 155.868 330.092 155.886 330.543C155.964 331.481 156.058 332.763 156.168 334.374C156.387 337.783 156.7 342.583 157.076 348.447C157.828 360.363 158.893 376.813 160.209 394.968C161.524 413.123 162.762 429.589 163.686 441.488C164.14 447.384 164.5 452.169 164.767 455.562C164.876 457.126 164.955 458.455 165.017 459.393C165.059 459.84 165.059 460.291 165.017 460.738C164.914 460.301 164.845 459.856 164.814 459.409C164.72 458.47 164.579 457.188 164.406 455.593C164.093 452.184 163.639 447.399 163.075 441.52C162.01 429.62 160.663 413.185 159.379 395.015C158.094 376.844 157.123 360.378 156.512 348.463C156.246 342.552 156.027 337.751 155.854 334.389C155.854 332.826 155.76 331.496 155.729 330.543C155.697 330.095 155.703 329.645 155.745 329.198Z" fill="#EFF0F7"/>
<path d="M143.238 448.37C143.055 444.936 145.79 442.051 149.229 442.051H171.814C175.128 442.051 177.814 444.738 177.814 448.051V467.649C177.814 472.087 176.048 476.343 172.905 479.48C169.762 482.618 165.5 484.381 161.055 484.381C156.764 484.379 152.637 482.736 149.523 479.79C146.409 476.844 144.544 472.818 144.311 468.541L143.238 448.37Z" fill="#312E72"/>
<path d="M177.97 454.25C177.97 454.25 177.532 454 176.686 453.718C175.496 453.363 174.235 453.314 173.021 453.578C171.207 454.024 169.439 454.642 167.743 455.423C166.676 455.857 165.561 456.162 164.422 456.33C163.188 456.477 161.938 456.413 160.726 456.142C158.467 455.556 156.245 454.841 154.069 454C152.321 453.386 150.469 453.121 148.618 453.218C147.383 453.283 146.185 453.666 145.141 454.328C144.405 454.829 144.092 455.22 144.029 455.173C144.232 454.736 144.545 454.359 144.938 454.078C145.992 453.272 147.25 452.774 148.571 452.639C150.506 452.456 152.458 452.675 154.304 453.281C156.371 453.906 158.533 454.844 160.882 455.345C162.012 455.597 163.176 455.666 164.328 455.548C165.399 455.385 166.449 455.107 167.461 454.719C169.207 453.948 171.036 453.376 172.911 453.015C174.219 452.79 175.563 452.931 176.796 453.421C177.673 453.812 178.002 454.219 177.97 454.25Z" fill="#DCDDEB"/>
<path d="M177.971 457.237C177.971 457.237 177.533 456.987 176.687 456.705C175.486 456.327 174.208 456.263 172.975 456.517C171.159 456.956 169.39 457.574 167.697 458.363C166.628 458.79 165.514 459.094 164.376 459.27C163.142 459.41 161.893 459.346 160.68 459.082C158.423 458.484 156.201 457.764 154.023 456.924C152.275 456.311 150.423 456.045 148.572 456.142C147.335 456.211 146.137 456.599 145.095 457.268C144.359 457.753 144.046 458.144 143.983 458.097C144.186 457.66 144.499 457.283 144.892 457.002C145.944 456.195 147.204 455.702 148.525 455.579C150.46 455.38 152.415 455.599 154.258 456.22C156.325 456.83 158.487 457.784 160.836 458.284C161.967 458.532 163.131 458.595 164.282 458.472C165.355 458.326 166.406 458.053 167.415 457.659C169.164 456.89 170.991 456.313 172.865 455.939C174.173 455.714 175.517 455.855 176.75 456.345C177.237 456.513 177.663 456.824 177.971 457.237Z" fill="#DCDDEB"/>
<path d="M149.136 458.941C149.136 459.05 148.87 459.191 148.776 459.597C148.682 460.004 148.854 460.489 149.434 460.395C150.013 460.301 150.045 459.801 149.81 459.425C149.575 459.05 149.262 459.034 149.246 458.925C149.23 458.816 149.685 458.581 150.233 459.034C150.388 459.175 150.507 459.35 150.581 459.546C150.654 459.742 150.68 459.953 150.656 460.16C150.608 460.429 150.476 460.675 150.279 460.863C150.082 461.051 149.83 461.172 149.559 461.208C149.289 461.258 149.011 461.221 148.763 461.103C148.516 460.985 148.312 460.792 148.181 460.551C148.093 460.36 148.054 460.15 148.067 459.939C148.081 459.729 148.147 459.526 148.259 459.347C148.635 458.753 149.168 458.831 149.136 458.941Z" fill="#DCDDEB"/>
<path d="M161.775 452.294C161.665 452.294 161.932 451.763 162.637 451.872C162.849 451.917 163.042 452.027 163.188 452.187C163.334 452.347 163.426 452.548 163.451 452.764C163.484 453.03 163.426 453.3 163.286 453.529C163.146 453.758 162.932 453.933 162.68 454.026C162.427 454.118 162.151 454.123 161.896 454.038C161.64 453.954 161.421 453.786 161.274 453.561C161.159 453.384 161.098 453.178 161.098 452.967C161.098 452.756 161.159 452.55 161.274 452.373C161.65 451.794 162.135 451.872 162.135 451.982C162.135 452.091 161.885 452.248 161.791 452.607C161.77 452.695 161.771 452.786 161.793 452.873C161.814 452.96 161.857 453.04 161.916 453.108C161.983 453.179 162.067 453.231 162.161 453.258C162.255 453.286 162.354 453.288 162.449 453.264C162.535 453.228 162.61 453.167 162.662 453.089C162.715 453.011 162.744 452.92 162.746 452.826C162.752 452.743 162.732 452.66 162.691 452.587C162.649 452.515 162.586 452.457 162.511 452.42C162.135 452.248 161.853 452.373 161.775 452.294Z" fill="#DCDDEB"/>
<path d="M174.007 458.738C174.007 458.644 174.477 458.441 175.025 458.957C175.188 459.116 175.303 459.318 175.355 459.539C175.408 459.761 175.397 459.992 175.323 460.208C175.247 460.494 175.076 460.745 174.837 460.921C174.598 461.096 174.306 461.185 174.01 461.172C173.714 461.159 173.431 461.046 173.208 460.851C172.986 460.655 172.837 460.39 172.786 460.098C172.735 459.869 172.758 459.629 172.851 459.414C172.943 459.198 173.101 459.016 173.302 458.894C173.976 458.503 174.43 458.894 174.336 458.972C174.242 459.051 173.945 458.972 173.647 459.348C173.574 459.42 173.524 459.511 173.501 459.611C173.479 459.711 173.486 459.815 173.522 459.911C173.561 460.022 173.63 460.12 173.721 460.194C173.812 460.269 173.922 460.317 174.039 460.333C174.162 460.329 174.282 460.29 174.385 460.221C174.487 460.152 174.568 460.055 174.618 459.942C174.668 459.845 174.693 459.738 174.693 459.629C174.693 459.52 174.668 459.413 174.618 459.316C174.352 458.941 173.992 458.863 174.007 458.738Z" fill="#DCDDEB"/>
<path d="M388.192 155.333L354.927 155.64L355.234 188.851L388.5 188.544L388.192 155.333Z" fill="#4E4B88"/>
<path d="M388.132 163.795C382.682 164.305 377.207 164.508 371.734 164.404C366.261 164.603 360.781 164.505 355.318 164.108C360.769 163.609 366.243 163.405 371.717 163.5C377.19 163.301 382.67 163.399 388.132 163.795Z" fill="#7976AB"/>
<path d="M378.042 174.096C377.886 173.623 377.758 173.141 377.659 172.652C377.263 171.377 376.462 170.266 375.376 169.486C374.585 168.93 373.669 168.576 372.709 168.454C371.749 168.333 370.774 168.448 369.869 168.79C368.756 169.204 367.798 169.953 367.128 170.933C366.458 171.913 366.108 173.076 366.127 174.262C366.147 175.448 366.533 176.6 367.235 177.558C367.936 178.516 368.917 179.233 370.044 179.611C370.955 179.935 371.931 180.032 372.888 179.892C373.845 179.753 374.753 179.382 375.533 178.811C376.606 178.015 377.389 176.891 377.763 175.61C377.855 175.117 377.971 174.629 378.112 174.148C378.24 174.657 378.24 175.189 378.112 175.697C377.847 177.126 377.074 178.411 375.934 179.316C375.084 180.001 374.073 180.459 372.997 180.648C371.921 180.837 370.815 180.749 369.782 180.394C368.501 179.954 367.387 179.128 366.596 178.03C365.804 176.933 365.373 175.617 365.361 174.264C365.35 172.911 365.759 171.588 366.532 170.476C367.305 169.365 368.404 168.521 369.678 168.059C370.705 167.69 371.809 167.585 372.887 167.756C373.966 167.926 374.984 168.366 375.847 169.033C376.998 169.924 377.795 171.194 378.095 172.617C378.201 173.107 378.183 173.615 378.042 174.096Z" fill="#7976AB"/>
<path d="M517.122 188.64H308.163V199.288H517.122V188.64Z" fill="#36346B"/>
<path d="M481.851 196.751H475.943V231.703H481.851V196.751Z" fill="#36346B"/>
<path d="M350.055 196.225H343.973V232.238H350.055V196.225Z" fill="#36346B"/>
<path d="M406.134 17.4644C409.684 17.7466 413.141 18.7411 416.297 20.3882C419.453 22.0354 422.243 24.3014 424.501 27.0506C428.985 32.5921 432.139 39.0851 433.72 46.0317C437.205 59.3236 434.853 74.9468 430.949 88.0996C416.607 82.8802 407.877 67.4658 403.938 59.3932C397.717 46.6232 394.232 19.7609 406.134 17.4644Z" fill="#05C168"/>
<path d="M451.493 104.35C449.371 100.989 448.173 97.1287 448.02 93.1582C447.867 89.1878 448.765 85.2471 450.622 81.733C452.55 78.258 455.152 75.2008 458.276 72.7396C461.399 70.2784 464.982 68.4623 468.815 67.3972C472.301 66.3533 476.413 65.9358 479.445 67.9887C480.802 69.0463 481.854 70.4439 482.493 72.0391C483.133 73.6344 483.338 75.3703 483.087 77.0704C482.513 80.4644 481.059 83.6492 478.87 86.3086C471.795 95.6861 463.187 103.48 451.493 104.35Z" fill="#05C168"/>
<path d="M436.265 118.424C431.794 111.318 425.689 105.381 418.458 101.105C411.226 96.8294 403.076 94.339 394.686 93.841C390.416 93.6322 385.328 94.45 383.516 98.2949C381.703 102.14 384.335 106.611 387.28 109.69C393.574 115.993 401.597 120.293 410.337 122.048C419.076 123.804 428.141 122.936 436.387 119.555" fill="#05C168"/>
<path d="M451.615 149.933C451.331 149.014 451.133 148.07 451.023 147.115C450.709 145.375 450.291 142.661 449.838 139.373C448.521 130.811 448.328 122.114 449.263 113.502C450.293 104.84 453.626 96.61 458.917 89.6672C460.537 87.5932 462.403 85.7236 464.476 84.0999C465.19 83.5084 465.835 83.143 466.218 82.8647C466.42 82.7064 466.643 82.5775 466.881 82.4819C464.129 84.7236 461.633 87.2617 459.44 90.05C454.399 97.0068 451.22 105.133 450.204 113.659C449.306 122.19 449.417 130.798 450.535 139.303C450.901 142.47 451.197 145.079 451.423 147.063C451.556 148.014 451.62 148.973 451.615 149.933Z" fill="#DCDDEB"/>
<path d="M410.593 37.6816C410.809 38.0311 410.995 38.3977 411.151 38.7777L412.597 41.9963C413.835 44.7799 415.595 48.851 417.703 53.8964C421.938 63.9697 427.601 77.975 433.509 93.5808C439.416 109.187 444.453 123.435 447.955 133.805C449.698 139.024 451.092 143.182 452.016 146.105C452.434 147.497 452.782 148.61 453.061 149.463C453.203 149.845 453.302 150.242 453.358 150.646C453.155 150.289 452.997 149.91 452.887 149.515C452.573 148.68 452.173 147.584 451.685 146.209L447.345 134.031C443.703 123.731 438.632 109.517 432.672 93.9288C426.713 78.3403 421.189 64.3525 417.111 54.1574L412.266 42.1703C411.743 40.8132 411.308 39.7172 410.977 38.8821C410.804 38.4978 410.675 38.095 410.593 37.6816Z" fill="#DCDDEB"/>
<path d="M401.41 104.802C402.331 104.786 403.251 104.844 404.163 104.976C405.236 105.04 406.302 105.185 407.352 105.411C408.767 105.647 410.168 105.955 411.552 106.333L413.957 106.994C414.793 107.238 415.699 107.586 416.518 107.899C418.394 108.572 420.232 109.344 422.025 110.213C426.108 112.257 429.968 114.717 433.544 117.555C437.118 120.487 440.366 123.794 443.233 127.419C444.453 128.993 445.587 130.63 446.631 132.325C447.119 133.126 447.624 133.874 448.025 134.639L449.175 136.849C449.822 138.123 450.404 139.43 450.918 140.763C451.347 141.746 451.708 142.758 451.998 143.79C452.309 144.658 452.554 145.548 452.73 146.452C452.521 146.452 451.51 142.712 448.583 137.145L447.398 134.987C446.997 134.239 446.474 133.508 445.986 132.725C445.028 131.142 443.791 129.594 442.501 127.924C436.877 120.855 429.776 115.096 421.694 111.048C419.812 110.178 418.052 109.308 416.292 108.682C415.438 108.369 414.549 108.003 413.8 107.742L411.43 107.029C405.4 105.272 401.41 105.063 401.41 104.802Z" fill="#DCDDEB"/>
<path d="M424.326 137.092H475.96V167.26C475.96 170.068 475.406 172.848 474.33 175.443C473.254 178.037 471.676 180.394 469.688 182.379C467.699 184.365 465.338 185.94 462.739 187.014C460.141 188.089 457.356 188.642 454.543 188.642H445.743C440.063 188.642 434.616 186.389 430.599 182.379C426.583 178.37 424.326 172.931 424.326 167.26V137.092Z" fill="#615F91"/>
<path d="M506.278 256.887C505.787 257.461 505.091 257.819 504.339 257.887C503.587 257.954 502.838 257.725 502.253 257.248L414.805 184.79L418.469 180.411L505.87 252.887C506.451 253.366 506.819 254.055 506.896 254.804C506.972 255.552 506.75 256.301 506.278 256.887Z" fill="#7876B4"/>
<path d="M441.78 203.39C441.78 203.39 436.449 216.932 430.988 216.372C425.527 215.812 424.043 207.091 424.043 207.091C424.043 207.091 419.545 214.845 414.897 211.104C410.248 207.363 411.477 198.143 411.477 198.143C411.477 198.143 403.806 202.93 401.151 198.809C397.51 193.132 408.483 183.519 408.483 183.519C408.483 183.519 416.415 162.292 422.308 162.813C427.165 163.228 426.099 171.281 426.099 171.281C426.099 171.281 430.068 165.679 434.882 165.598C439.696 165.517 437.871 177.44 437.871 177.44C437.871 177.44 446.371 172.174 449.307 176.731C452.243 181.287 443.662 188.343 443.662 188.343C443.662 188.343 454.987 185.58 453.869 192.06C452.751 198.539 441.78 203.39 441.78 203.39Z" fill="#4B3CFB"/>
<path d="M412.851 147.86C408.263 144.051 402.086 149.048 402.086 149.048C402.086 149.048 403.431 143.2 400.497 141.668C394.526 138.513 387.848 151.886 387.848 151.886C387.848 151.886 369.447 159.114 369.25 165.045C369.053 170.976 376.913 170.297 376.913 170.297C375.896 171.28 375.13 172.493 374.68 173.833C374.231 175.173 374.11 176.601 374.329 177.997C375.131 182.716 386.566 178.709 386.566 178.709C386.566 178.709 382.958 188.024 387.967 190.073C391.542 191.538 395.281 187.043 397.149 184.32C395.787 186.855 394.186 191.252 397.666 193.945C399.349 195.271 401.947 193.233 404.523 190.199C404.765 190.927 405.211 191.569 405.808 192.051C406.406 192.532 407.129 192.832 407.892 192.915C411.969 193.517 414.839 186.349 414.687 181.723C418.906 180.773 423.005 179.074 421.938 176.01C421.51 174.95 420.846 174.003 419.995 173.239C419.144 172.476 418.129 171.918 417.028 171.607C419.688 167.427 422.436 162.196 421.585 159.265C420.059 153.957 413.115 159.67 413.115 159.67C413.115 159.67 417.439 151.668 412.851 147.86Z" fill="white"/>
<path d="M375.076 125.624C375.076 125.624 375.185 118.057 370.105 115.884C365.025 113.71 359.963 125.661 359.963 125.661C359.963 125.661 347.932 123.088 344.828 128.885C341.723 134.683 349.246 140.634 349.246 140.634C349.246 140.634 343.192 143.42 344.586 148.671C345.98 153.921 355.697 151.518 355.697 151.518C355.697 151.518 350.219 162.333 354.791 163.746C359.363 165.158 365.16 159.699 365.16 159.699C365.16 159.699 362.164 168.708 368.061 169.293C370.67 169.555 373.53 166.104 375.929 162.179C376.52 163.177 377.448 163.931 378.547 164.306C379.645 164.68 380.842 164.651 381.921 164.223C388.566 161.631 384.854 154.638 384.854 154.638C384.854 154.638 399.053 152.285 398.329 147.207C398.036 145.051 395.617 144.409 392.939 144.359C395.9 141.884 397.945 139.168 396.72 136.756C394.177 131.422 384.772 135.417 384.772 135.417C384.772 135.417 389.592 130.059 386.422 125.048C383.252 120.038 375.076 125.624 375.076 125.624Z" fill="#4B3CFB"/>
<path d="M502.189 249.592C502.189 249.592 504.544 249.117 505.496 250.091C507.566 252.228 504.14 255.102 504.14 255.102C500.793 258.328 497.274 261.373 493.601 264.223C493.601 264.223 437.24 335.289 426.344 340.039C417.684 343.958 365.701 343.198 345.455 342.747L326.732 404.502L342.148 463.739L238.849 465.092L263.068 405.404L259.119 391.58L250.03 372.912C227.881 422.292 212.536 499.604 207.207 525.945L207.588 528.32C207.736 532.372 208.294 536.398 209.253 540.338C209.717 542.315 210.522 544.195 211.632 545.896C212.877 548.08 214.423 550.079 216.224 551.834C216.602 552.121 216.886 552.514 217.038 552.963C217.191 553.412 217.206 553.896 217.08 554.353C216.955 554.811 216.695 555.22 216.335 555.529C215.974 555.838 215.53 556.032 215.058 556.086C212.964 555.991 207.873 552.143 204.519 545.516C201.164 538.89 198.666 550.338 197.667 554.471C196.668 558.604 193.028 571.311 191.505 572.023C189.269 573.045 187.746 570.931 188.841 566.75C189.935 562.57 192.243 550.053 190.078 549.625C187.913 549.198 183.155 570.408 183.155 570.408C183.155 570.408 182.869 575.087 180.3 574.707C175.637 573.995 182.322 551.834 183.012 549.744C183.44 548.271 181.085 547.773 180.633 549.34C180.181 550.908 176.398 570.574 171.64 569.909C168 569.387 176.969 551.644 175.494 547.131C174.019 542.619 170.07 561.287 166.596 560.646C165.311 560.409 164.384 560.052 168.214 549.649C171.515 541.801 175.231 534.134 179.348 526.681C184.796 470.152 215.677 369.515 229.309 326.999C231.353 320.632 235.111 314.948 240.17 310.566C245.23 306.185 251.398 303.276 258 302.155C272.582 299.741 287.328 298.447 302.109 298.283C307.961 298.212 309.008 297.381 314.884 297.119C319.533 297.08 324.178 297.397 328.778 298.069C342.315 299.495 409.786 306.454 413.14 303.271C416.899 299.732 468.811 250.019 468.811 250.019H469.001C470.35 246.53 471.424 242.94 472.213 239.284C472.644 237.318 472.733 235.293 472.474 233.298C472.268 230.793 471.708 228.33 470.809 225.983C469.786 223.916 471.784 221.684 473.664 222.634C475.543 223.584 478.541 229.189 478.779 236.623C479.017 244.058 488.747 231.398 488.747 231.398C490.981 230.234 495.08 230.125 493.601 238.999C495.132 238.954 496.655 239.229 498.073 239.806C498.299 239.913 498.487 240.086 498.61 240.303C498.734 240.52 498.787 240.769 498.763 241.017C498.625 242.138 498.625 243.27 498.763 244.39C498.763 244.39 501.761 244.129 502.189 245.459C502.425 246.827 502.425 248.224 502.189 249.592Z" fill="#FFBE9D"/>
<path d="M234.304 420.986C237.302 410.773 252.695 360.277 252.695 360.277C252.695 360.277 260.26 401.439 258.262 406.403C256.423 410.652 254.252 414.75 251.767 418.659C234.304 445.189 236.588 458.467 236.588 458.467L342.1 455.26C342.338 440.534 333.607 406.284 331.799 400.821C329.991 395.358 336.01 377.473 336.01 377.473C336.01 377.473 347.905 365.383 347.477 359.16C347.251 353.57 346.559 348.009 345.407 342.534L409.642 344.909L407.62 301.443L315.36 292.228C312.148 301.277 283.099 296.835 283.099 296.835C251.743 297.88 249.792 303.628 236.755 313.747C223.717 323.865 202.139 410.702 202.139 410.702L234.304 420.986Z" fill="#0075FF"/>
<path d="M296.684 410.702C294.856 411.028 292.993 411.124 291.141 410.987C287.691 410.987 282.957 410.749 277.747 410.227C272.536 409.704 267.826 408.968 264.471 408.303C262.622 408.065 260.808 407.602 259.071 406.925C260.931 406.926 262.787 407.101 264.614 407.448C267.992 407.875 272.679 408.469 277.866 408.992C283.052 409.514 287.762 409.87 291.165 410.108C293.019 410.131 294.867 410.33 296.684 410.702Z" fill="white"/>
<path d="M303.916 401.747C302.087 402.641 300.153 403.303 298.159 403.718C288.667 406.208 278.874 407.367 269.062 407.162C267.032 407.228 265.002 407.036 263.02 406.592C265.023 406.339 267.043 406.236 269.062 406.283C272.798 406.164 277.936 405.903 283.599 405.238C289.261 404.573 294.304 403.623 297.873 402.863C299.855 402.334 301.876 401.961 303.916 401.747Z" fill="white"/>
<path d="M339.413 361.794C339.365 363.605 339.117 365.405 338.675 367.162C338.057 370.463 337.105 374.976 335.892 379.917C334.679 384.857 333.513 389.417 332.466 392.505C332.045 394.273 331.422 395.986 330.61 397.612C330.743 395.806 331.078 394.022 331.61 392.291C332.514 388.586 333.537 384.311 334.679 379.632C335.821 374.952 336.915 370.677 337.819 366.972C338.141 365.188 338.676 363.45 339.413 361.794Z" fill="white"/>
<path d="M235.423 414.928C229.919 414.079 224.488 412.817 219.174 411.151C213.745 409.884 208.417 408.216 203.234 406.163C208.736 407.025 214.166 408.288 219.483 409.94C224.914 411.203 230.242 412.87 235.423 414.928Z" fill="white"/>
<path d="M346.55 342.011C345.652 342.165 344.735 342.165 343.838 342.011C341.353 341.757 338.913 341.174 336.581 340.277C332.69 338.817 329.147 336.56 326.18 333.652C323.214 330.744 320.89 327.248 319.357 323.39C317.663 319.145 316.939 314.577 317.24 310.017C317.346 306.257 318.472 302.596 320.499 299.424C321.924 297.288 324.054 295.716 326.518 294.982C327.176 294.801 327.857 294.713 328.54 294.721C329.016 294.721 329.254 294.721 329.254 294.721C329.254 294.721 328.255 294.721 326.661 295.363C324.4 296.196 322.483 297.759 321.213 299.804C317.977 304.887 317.073 314.174 320.523 322.843C322.128 326.931 324.642 330.602 327.874 333.579C330.522 336.016 333.573 337.976 336.891 339.375C340.004 340.603 343.243 341.487 346.55 342.011Z" fill="white"/>
<path d="M402.007 344.054C401.412 336.771 401.221 329.46 401.436 322.155C401.25 314.857 401.472 307.553 402.102 300.28C402.698 307.555 402.888 314.858 402.673 322.155C402.873 329.462 402.651 336.774 402.007 344.054Z" fill="white"/>
<path d="M314.741 294.888C315.002 289.592 315.55 283.606 315.55 283.606C315.55 283.606 328.682 282.157 329.467 268.619C330.252 255.08 329.467 223.846 329.467 223.846L305.676 211.686L279.269 232.421L283.337 300.114L307.556 301.658C309.407 301.709 311.203 301.025 312.55 299.756C313.897 298.487 314.685 296.736 314.741 294.888Z" fill="#FFBE9D"/>
<path d="M317.097 257.906C317.097 257.906 317.097 258.168 316.883 258.476C316.706 258.7 316.477 258.878 316.216 258.994C315.955 259.11 315.669 259.16 315.384 259.141C313.862 259.141 312.387 257.384 311.863 255.341C311.615 254.351 311.615 253.315 311.863 252.325C311.912 251.893 312.068 251.479 312.318 251.123C312.567 250.766 312.901 250.477 313.291 250.282C313.611 250.15 313.97 250.15 314.29 250.282C314.527 250.4 314.719 250.591 314.837 250.828C315.004 251.232 314.837 251.493 314.837 251.47C314.837 251.446 314.837 251.232 314.599 250.995C314.475 250.824 314.292 250.706 314.086 250.662C313.879 250.619 313.664 250.652 313.481 250.757C313.189 250.933 312.947 251.18 312.776 251.475C312.606 251.77 312.513 252.103 312.506 252.443C312.305 253.327 312.305 254.244 312.506 255.127C312.981 256.98 314.266 258.476 315.408 258.619C315.632 258.649 315.859 258.633 316.076 258.572C316.293 258.511 316.495 258.405 316.669 258.263C316.955 258.073 317.05 257.883 317.097 257.906Z" fill="#EB996E"/>
<path d="M337.628 216.529C335.796 210.306 329.158 207.219 323.115 205.509C313.908 202.896 303.964 201.756 294.971 205.057C285.978 208.359 275.177 214.154 275.177 224.059C269.872 223.631 266.826 228.263 264.733 234.011C263.394 237.513 262.592 241.196 262.354 244.937C261.688 257.905 258.048 275.814 249.626 285.315C244.868 290.612 238.277 294.269 235.565 300.872C233.186 306.597 234.423 313.39 232.211 319.185C230.236 324.292 225.882 327.926 222.695 332.367C219.447 337.406 217.535 343.186 217.14 349.165C216.745 355.144 217.878 361.125 220.434 366.546C223.009 371.828 226.634 376.532 231.088 380.37C235.542 384.209 240.732 387.102 246.343 388.873C257.455 392.248 269.306 392.364 280.482 389.205C288.87 387.203 296.695 383.33 303.369 377.876C310.198 372.308 314.888 364.555 316.644 355.929C318.333 346.238 315.621 336.381 313.599 326.738C307.271 296.264 309.079 294.673 317.073 266.385C317.263 265.886 317.358 265.363 317.501 264.865C317.644 264.366 317.715 264.128 317.81 263.748C318.037 262.63 318.157 261.493 318.167 260.352C316.999 260.785 315.732 260.877 314.514 260.616C313.296 260.355 312.178 259.753 311.291 258.879C310.403 257.948 309.783 256.794 309.498 255.539C309.213 254.285 309.274 252.976 309.674 251.753C310.235 250.416 311.071 249.211 312.129 248.217C313.186 247.223 314.441 246.461 315.812 245.982C318.452 244.889 321.284 244.319 323.877 243.108C329.372 240.495 333.179 235.08 335.772 229.403C337.904 225.469 338.562 220.904 337.628 216.529Z" fill="#6E7191"/>
<path d="M236.589 458.465L342.101 455.259L388.017 634.205L379.572 839.469H323.782L330.61 638.576L289.809 513.997L296.09 847.426L239.706 848.257L233.782 534.851C233.52 526.134 230.665 506.491 231.736 497.846L236.589 458.465Z" fill="#6E7191"/>
<path d="M303.845 516.538C302.118 516.646 300.384 516.543 298.682 516.229C295.494 515.849 291.141 515.184 286.359 514.234C281.577 513.284 277.294 512.191 274.202 511.313C272.548 510.95 270.949 510.375 269.443 509.602C269.443 509.246 277.199 511.099 286.715 513.023C296.232 514.947 303.892 516.182 303.845 516.538Z" fill="#A0A3BD"/>
<path d="M288.31 837.903C287.977 837.903 286.502 765.057 285.003 675.203C283.505 585.35 282.624 512.456 282.934 512.456C283.243 512.456 284.766 585.279 286.241 675.18C287.716 765.08 288.667 837.903 288.31 837.903Z" fill="#A0A3BD"/>
<path d="M371.507 828.211C371.481 827.887 371.481 827.562 371.507 827.238V824.387C371.507 821.822 371.697 818.141 371.84 813.461C372.173 803.961 372.649 790.161 373.244 773.25C374.528 739.237 376.336 692.351 378.311 640.595C378.311 640.097 378.311 639.622 378.311 639.194V639.36C365.821 589.481 354.52 544.21 346.312 511.457L336.796 472.717C335.702 468.181 334.869 464.642 334.274 462.172C333.989 461.008 333.798 460.105 333.632 459.416C333.539 459.107 333.483 458.788 333.465 458.466C333.589 458.766 333.685 459.076 333.751 459.393C333.941 460.058 334.179 460.96 334.512 462.1C335.155 464.476 336.082 468.086 337.272 472.599C339.651 481.767 343.005 494.973 347.193 511.243C355.472 543.973 366.891 589.125 379.548 639.075V639.242C379.548 639.669 379.548 640.168 379.548 640.643C377.431 692.398 375.504 739.261 374.1 773.273C373.363 790.208 372.744 803.913 372.316 813.461C372.078 818.212 371.887 821.822 371.769 824.387C371.769 825.599 371.626 826.549 371.602 827.238C371.606 827.565 371.574 827.891 371.507 828.211Z" fill="#A0A3BD"/>
<path d="M353.306 635.015C349.299 636.33 345.171 637.245 340.982 637.746C335.843 638.625 334.317 638.591 332.342 638.686V638.211C332.985 638.401 333.318 638.52 333.318 638.615C333.318 638.71 332.913 638.615 332.247 638.615H330.82L332.247 638.187C334.103 637.641 335.629 637.39 340.768 636.463C344.89 635.571 349.089 635.086 353.306 635.015Z" fill="#A0A3BD"/>
<path d="M352.331 641.831C348.62 642 344.902 641.834 341.221 641.332C337.505 641.256 334.263 640.808 330.618 640.078C338.053 639.473 345.078 640.092 352.331 641.831Z" fill="#A0A3BD"/>
<path opacity="0.2" d="M236.136 462.242C237.386 463.844 238.96 465.165 240.755 466.118C242.551 467.072 244.528 467.637 246.557 467.776C250.806 468.279 255.104 468.199 259.332 467.538C286.573 464.522 315.431 461.743 342.1 455.259C307.58 457.183 271.109 456.541 236.588 458.465L236.231 461.41" fill="#A0A3BD"/>
<g opacity="0.2">
<path opacity="0.2" d="M271.704 510.816L291.164 586.204L289.808 513.999L271.704 510.816Z" fill="black"/>
</g>
<path d="M474.005 107.849C480.201 110.204 477.732 117.66 477.732 117.66C477.732 117.66 482.779 116.091 485.185 119.67C487.591 123.249 479.147 124.489 480.468 125.745C481.789 127.001 487.434 129.764 483.393 132.935C479.351 136.106 473.958 131.224 473.958 131.224C473.958 131.224 472.763 134.159 468.109 134.85C463.454 135.541 465.341 127.77 465.341 127.77C465.341 127.77 462.338 131.804 460.263 125.462C459.934 124.7 459.784 123.872 459.824 123.042C459.863 122.213 460.092 121.404 460.492 120.676C460.893 119.948 461.454 119.32 462.133 118.841C462.813 118.362 463.593 118.044 464.414 117.912C464.414 117.912 461.505 112.354 464.005 110.973C466.505 109.591 471.175 114.113 471.175 114.113C471.175 114.113 470.908 106.672 474.005 107.849Z" fill="#407BFF"/>
<path d="M474.005 107.849C480.201 110.204 477.732 117.66 477.732 117.66C477.732 117.66 482.779 116.091 485.185 119.67C487.591 123.249 479.147 124.489 480.468 125.745C481.789 127.001 487.434 129.764 483.393 132.935C479.351 136.106 473.958 131.224 473.958 131.224C473.958 131.224 472.763 134.159 468.109 134.85C463.454 135.541 465.341 127.77 465.341 127.77C465.341 127.77 462.338 131.804 460.263 125.462C459.934 124.7 459.784 123.872 459.824 123.042C459.863 122.213 460.092 121.404 460.492 120.676C460.893 119.948 461.454 119.32 462.133 118.841C462.813 118.362 463.593 118.044 464.414 117.912C464.414 117.912 461.505 112.354 464.005 110.973C466.505 109.591 471.175 114.113 471.175 114.113C471.175 114.113 470.908 106.672 474.005 107.849Z" fill="#ACAAD1"/>
<path d="M517.027 139.637C518.19 142.463 514.92 144.001 514.92 144.001C514.92 144.001 517.043 145.178 516.602 147.141C516.162 149.103 513.064 146.654 513.08 147.502C513.096 148.349 513.945 151.128 511.602 150.767C509.259 150.406 509.165 147.078 509.165 147.078C508.627 147.209 508.066 147.204 507.53 147.065C506.995 146.925 506.503 146.654 506.099 146.277C504.385 144.943 507.592 143.138 507.592 143.138C507.592 143.138 505.297 143.42 506.759 140.704C506.912 140.353 507.143 140.042 507.434 139.793C507.725 139.544 508.07 139.364 508.441 139.267C508.812 139.17 509.2 139.159 509.576 139.234C509.952 139.309 510.306 139.468 510.611 139.7C510.611 139.7 511.555 136.953 512.813 137.361C514.071 137.769 514.024 140.767 514.024 140.767C514.024 140.767 516.429 138.224 517.027 139.637Z" fill="#407BFF"/>
<path d="M517.027 139.637C518.19 142.463 514.92 144.001 514.92 144.001C514.92 144.001 517.043 145.178 516.602 147.141C516.162 149.103 513.064 146.654 513.08 147.502C513.096 148.349 513.945 151.128 511.602 150.767C509.259 150.406 509.165 147.078 509.165 147.078C508.627 147.209 508.066 147.204 507.53 147.065C506.995 146.925 506.503 146.654 506.099 146.277C504.385 144.943 507.592 143.138 507.592 143.138C507.592 143.138 505.297 143.42 506.759 140.704C506.912 140.353 507.143 140.042 507.434 139.793C507.725 139.544 508.07 139.364 508.441 139.267C508.812 139.17 509.2 139.159 509.576 139.234C509.952 139.309 510.306 139.468 510.611 139.7C510.611 139.7 511.555 136.953 512.813 137.361C514.071 137.769 514.024 140.767 514.024 140.767C514.024 140.767 516.429 138.224 517.027 139.637Z" fill="#ACAAD1"/>
<path d="M483.031 166.402C479.76 169.401 476.034 165.68 476.034 165.68C476.034 165.68 475.468 169.181 472.59 169.542C469.713 169.903 471.505 164.471 470.342 164.927C469.178 165.382 465.829 167.878 465.153 164.503C464.477 161.128 469.005 159.369 469.005 159.369C468.547 158.706 468.268 157.935 468.194 157.133C468.119 156.33 468.253 155.522 468.581 154.786C469.556 151.803 473.675 155.257 473.675 155.257C473.675 155.257 472.103 152.258 476.584 152.917C477.134 152.956 477.668 153.117 478.147 153.389C478.626 153.661 479.037 154.037 479.351 154.489C479.665 154.941 479.873 155.458 479.96 156.001C480.048 156.544 480.011 157.1 479.855 157.627C479.855 157.627 484.069 157.627 484.147 159.464C484.226 161.3 480.075 162.792 480.075 162.792C480.075 162.792 484.666 164.911 483.031 166.402Z" fill="#407BFF"/>
<path d="M483.031 166.402C479.76 169.401 476.034 165.68 476.034 165.68C476.034 165.68 475.468 169.181 472.59 169.542C469.713 169.903 471.505 164.471 470.342 164.927C469.178 165.382 465.829 167.878 465.153 164.503C464.477 161.128 469.005 159.369 469.005 159.369C468.547 158.706 468.268 157.935 468.194 157.133C468.119 156.33 468.253 155.522 468.581 154.786C469.556 151.803 473.675 155.257 473.675 155.257C473.675 155.257 472.103 152.258 476.584 152.917C477.134 152.956 477.668 153.117 478.147 153.389C478.626 153.661 479.037 154.037 479.351 154.489C479.665 154.941 479.873 155.458 479.96 156.001C480.048 156.544 480.011 157.1 479.855 157.627C479.855 157.627 484.069 157.627 484.147 159.464C484.226 161.3 480.075 162.792 480.075 162.792C480.075 162.792 484.666 164.911 483.031 166.402Z" fill="#ACAAD1"/>
</g>
<path d="M329.5 258.889C324.3 260.489 317.333 254.222 314.5 250.889V269.889C314.5 274.389 318.1 282.789 320.5 282.389C323.5 281.889 332 274.389 329.5 258.889Z" fill="white"/>
<path d="M316 254.389C315.167 252.889 311.5 247.289 309.5 250.889C307 255.389 311 260.889 314.5 260.889" stroke="white" stroke-width="2"/>
</g>
</g>
</g>
<defs>
<clipPath id="clip0_30312_1586">
<rect width="518" height="676" fill="white" transform="translate(0 0.77002)"/>
</clipPath>
<clipPath id="clip1_30312_1586">
<rect width="518" height="676" fill="white" transform="translate(0 0.77002)"/>
</clipPath>
<clipPath id="clip2_30312_1586">
<rect width="518" height="676" fill="white" transform="translate(0 0.77002)"/>
</clipPath>
</defs>
</svg>
