<svg width="18" height="18" viewBox="0 0 18 18" fill="none" xmlns="http://www.w3.org/2000/svg">
	<symbol id='icon-facebook'>
		<path d="M10.584 17.8018V10.5118H13.356L13.77 7.66776H10.584V5.84976C10.584 5.39376 10.686 5.05776 10.89 4.84176C11.13 4.58976 11.562 4.46376 12.186 4.46376H13.878V1.92576C13.686 1.90176 13.386 1.87776 12.978 1.85376C12.45 1.82976 11.922 1.81776 11.394 1.81776C10.578 1.81776 9.858 1.96176 9.234 2.24976C8.61 2.53776 8.127 2.96376 7.785 3.52776C7.443 4.09176 7.272 4.76976 7.272 5.56176V7.66776H4.5V10.5118H7.272V17.8018H10.584Z" fill="#0075FF"/>
	</symbol>
</svg>



