<svg width="18" height="18" viewBox="0 0 18 18" fill="none" xmlns="http://www.w3.org/2000/svg">
	<symbol id="icon-instagram">
		<path d="M5.72403 0.511423C4.81203 0.511423 3.96603 0.739422 3.18603 1.19542C2.43003 1.63942 1.83003 2.23942 1.38603 2.99542C0.930026 3.77542 0.702026 4.62142 0.702026 5.53342V12.0854C0.702026 12.9974 0.930026 13.8434 1.38603 14.6234C1.83003 15.3794 2.43003 15.9794 3.18603 16.4234C3.96603 16.8794 4.81203 17.1074 5.72403 17.1074H12.276C13.188 17.1074 14.034 16.8794 14.814 16.4234C15.57 15.9794 16.17 15.3794 16.614 14.6234C17.07 13.8434 17.298 12.9974 17.298 12.0854V5.53342C17.298 4.62142 17.07 3.77542 16.614 2.99542C16.17 2.23942 15.57 1.63942 14.814 1.19542C14.034 0.739422 13.188 0.511423 12.276 0.511423H5.72403ZM13.374 3.57142C13.614 3.57142 13.818 3.65542 13.986 3.82342C14.154 3.99142 14.238 4.19542 14.238 4.43542C14.238 4.67542 14.154 4.88242 13.986 5.05642C13.818 5.23042 13.614 5.31742 13.374 5.31742C13.134 5.31742 12.927 5.23042 12.753 5.05642C12.579 4.88242 12.492 4.67542 12.492 4.43542C12.492 4.19542 12.579 3.99142 12.753 3.82342C12.927 3.65542 13.134 3.57142 13.374 3.57142ZM9.00003 4.43542C9.79203 4.43542 10.524 4.63042 11.196 5.02042C11.868 5.41042 12.399 5.94142 12.789 6.61342C13.179 7.28542 13.374 8.01742 13.374 8.80942C13.374 9.60142 13.179 10.3304 12.789 10.9964C12.399 11.6624 11.868 12.1904 11.196 12.5804C10.524 12.9704 9.79203 13.1654 9.00003 13.1654C8.20803 13.1654 7.47903 12.9704 6.81303 12.5804C6.14703 12.1904 5.61903 11.6624 5.22903 10.9964C4.83903 10.3304 4.64403 9.60142 4.64403 8.80942C4.64403 8.01742 4.83903 7.28542 5.22903 6.61342C5.61903 5.94142 6.14703 5.41042 6.81303 5.02042C7.47903 4.63042 8.20803 4.43542 9.00003 4.43542ZM9.00003 5.74942C8.62803 5.74942 8.23803 5.82742 7.83003 5.98342C7.43403 6.16342 7.10103 6.38842 6.83103 6.65842C6.56103 6.92842 6.34203 7.25542 6.17403 7.63942C6.01803 8.04742 5.94003 8.43742 5.94003 8.80942C5.94003 9.18142 6.01803 9.57142 6.17403 9.97942C6.35403 10.3754 6.57603 10.7054 6.84003 10.9694C7.10403 11.2334 7.43403 11.4554 7.83003 11.6354C8.23803 11.7914 8.62803 11.8694 9.00003 11.8694C9.37203 11.8694 9.76203 11.7914 10.17 11.6354C10.554 11.4674 10.881 11.2484 11.151 10.9784C11.421 10.7084 11.646 10.3754 11.826 9.97942C11.982 9.57142 12.06 9.18142 12.06 8.80942C12.06 8.43742 11.982 8.04742 11.826 7.63942C11.67 7.25542 11.451 6.92242 11.169 6.64042C10.887 6.35842 10.554 6.13942 10.17 5.98342C9.76203 5.82742 9.37203 5.74942 9.00003 5.74942Z" fill="#0075FF"/>
	</symbol>
</svg>