<svg width="18" height="18" viewBox="0 0 18 18" fill="none" xmlns="http://www.w3.org/2000/svg">
	<symbol id="icon-linkandin">
		<path d="M0 1.87164C0 1.31964 0.186 0.869641 0.558 0.521642C0.93 0.173641 1.428 -0.000358582 2.052 -0.000358582C2.676 -0.000358582 3.174 0.176641 3.546 0.530642C3.918 0.884642 4.104 1.34964 4.104 1.92564C4.104 2.44164 3.912 2.87664 3.528 3.23064C3.144 3.58464 2.646 3.76164 2.034 3.76164H2.016C1.404 3.76164 0.915 3.58164 0.549 3.22164C0.183 2.86164 0 2.41164 0 1.87164ZM0.216 16.1816V5.25564H3.852V16.1816H0.216ZM5.868 16.1816H9.522V10.0796C9.522 9.69564 9.564 9.40164 9.648 9.19764C9.792 8.82564 10.026 8.51064 10.35 8.25264C10.674 7.99464 11.064 7.86564 11.52 7.86564C12.744 7.86564 13.356 8.69364 13.356 10.3496V16.1816H16.992V9.91764C16.992 8.28564 16.611 7.05864 15.849 6.23664C15.087 5.41464 14.076 5.00364 12.816 5.00364C11.388 5.00364 10.29 5.60364 9.522 6.80364V6.83964H9.504L9.522 6.80364V5.25564H5.868C5.892 5.71164 5.904 6.79764 5.904 8.51364C5.904 9.43764 5.898 11.2556 5.886 13.9676L5.868 16.1816Z" fill="#0075FF"/>
	</symbol>
</svg>