<svg width="14" height="17" viewBox="0 0 14 17" fill="none" xmlns="http://www.w3.org/2000/svg">
	<symbol id="location-icon">
		<path d="M6.68009 0.28165C7.61609 0.257649 8.50109 0.416649 9.33509 0.758649C10.1691 1.10065 10.9101 1.60765 11.5581 2.27965C12.1581 2.98765 12.6111 3.77365 12.9171 4.63765C13.2231 5.50165 13.3581 6.38965 13.3221 7.30165C13.3221 8.51365 13.0461 9.67165 12.4941 10.7756C11.9901 11.7596 11.3661 12.6236 10.6221 13.3676C9.61409 14.4116 8.47409 15.2876 7.20209 15.9956C7.03409 16.0916 6.85709 16.1396 6.67109 16.1396C6.48509 16.1396 6.30809 16.0916 6.14009 15.9956C4.86809 15.2756 3.73409 14.3996 2.73809 13.3676C1.99409 12.6236 1.37009 11.7596 0.866088 10.7756C0.326088 9.71965 0.0440885 8.56165 0.0200885 7.30165C-0.0159115 6.38965 0.119089 5.50165 0.425088 4.63765C0.731088 3.77365 1.18409 2.98765 1.78409 2.27965C2.43209 1.60765 3.17909 1.10065 4.02509 0.758649C4.87109 0.416649 5.75609 0.257649 6.68009 0.28165ZM6.68009 14.6456C7.32809 14.2736 7.95209 13.8356 8.55209 13.3316C9.50009 12.5516 10.2501 11.7236 10.8021 10.8476C11.5221 9.69565 11.8821 8.51365 11.8821 7.30165C11.9181 6.56965 11.8161 5.85265 11.5761 5.15065C11.3361 4.44865 10.9761 3.81565 10.4961 3.25165C10.0041 2.74765 9.42209 2.35765 8.75009 2.08165C8.11409 1.81765 7.42409 1.69765 6.68009 1.72165C5.92409 1.69765 5.23409 1.81765 4.61009 2.08165C3.95009 2.34565 3.36209 2.73565 2.84609 3.25165C2.36609 3.81565 2.00909 4.44565 1.77509 5.14165C1.54109 5.83765 1.43609 6.55765 1.46009 7.30165C1.46009 8.51365 1.82609 9.69565 2.55809 10.8476C3.11009 11.7236 3.85409 12.5516 4.79009 13.3316C5.40209 13.8356 6.03209 14.2736 6.68009 14.6456ZM6.68009 3.25165C7.10009 3.25165 7.51109 3.32365 7.91309 3.46765C8.31509 3.61165 8.68409 3.82165 9.02009 4.09765C9.69209 4.64965 10.1181 5.35765 10.2981 6.22165C10.3821 6.64165 10.3911 7.06165 10.3251 7.48165C10.2591 7.90165 10.1241 8.30065 9.92009 8.67865C9.71609 9.05665 9.45809 9.38965 9.14609 9.67765C8.83409 9.96565 8.48009 10.1876 8.08409 10.3436C7.68809 10.4996 7.28009 10.5896 6.86009 10.6136C6.44009 10.6376 6.02609 10.5896 5.61809 10.4696C5.21009 10.3496 4.83509 10.1606 4.49309 9.90265C4.15109 9.64465 3.86009 9.33865 3.62009 8.98465C3.38009 8.63065 3.20909 8.24965 3.10709 7.84165C3.00509 7.43365 2.97509 7.01665 3.01709 6.59065C3.05909 6.16465 3.17009 5.75965 3.35009 5.37565C3.53009 4.99165 3.77009 4.64365 4.07009 4.33165C4.40609 3.99565 4.79609 3.73165 5.24009 3.53965C5.68409 3.34765 6.16409 3.25165 6.68009 3.25165ZM6.68009 9.17365C7.24409 9.17365 7.71809 9.00565 8.10209 8.66965C8.53409 8.32165 8.79809 7.88965 8.89409 7.37365C8.99009 6.85765 8.90909 6.36265 8.65109 5.88865C8.39309 5.41465 8.02409 5.07565 7.54409 4.87165C7.04009 4.66765 6.53609 4.63765 6.03209 4.78165C5.50409 4.94965 5.09309 5.25265 4.79909 5.69065C4.50509 6.12865 4.38809 6.62065 4.44809 7.16665C4.50809 7.71265 4.72409 8.16565 5.09609 8.52565C5.28809 8.72965 5.52509 8.88865 5.80709 9.00265C6.08909 9.11665 6.38009 9.17365 6.68009 9.17365Z" fill="#211F54"/>
	</symbol>
</svg>
