<svg width="17" height="17" viewBox="0 0 17 17" fill="none" xmlns="http://www.w3.org/2000/svg">
	<symbol id="phone-icon">
		<path d="M12.512 16.1162C11.66 16.1162 10.898 15.8942 10.226 15.4502L10.19 15.4322C8.47396 14.2802 6.87796 12.9662 5.40196 11.4902C3.92596 10.0142 2.59996 8.40621 1.42396 6.66621L1.40596 6.63021C0.865957 5.77821 0.649957 4.86021 0.757957 3.87621C0.817957 3.39621 0.952957 2.93721 1.16296 2.49921C1.37296 2.06121 1.64596 1.67421 1.98196 1.33821L2.48596 0.834211C2.66596 0.654212 2.87296 0.516212 3.10696 0.420212C3.34096 0.324212 3.58396 0.276212 3.83596 0.276212C4.35196 0.276212 4.79596 0.462212 5.16796 0.834211L7.25596 2.92221C7.43596 3.10221 7.57396 3.31221 7.66996 3.55221C7.76596 3.79221 7.81396 4.03521 7.81396 4.28121C7.81396 4.52721 7.76896 4.76421 7.67896 4.99221C7.58896 5.22021 7.44796 5.43021 7.25596 5.62221C7.17196 5.69421 7.12996 5.79921 7.12996 5.93721C7.12996 6.07521 7.17196 6.18621 7.25596 6.27021L10.604 9.60021C10.676 9.69621 10.784 9.74421 10.928 9.74421C10.952 9.74421 11 9.73821 11.072 9.72621L11.108 9.70821L11.252 9.60021C11.42 9.43221 11.627 9.29721 11.873 9.19521C12.119 9.09321 12.359 9.04221 12.593 9.04221C12.827 9.04221 13.067 9.09321 13.313 9.19521C13.559 9.29721 13.766 9.43221 13.934 9.60021L16.022 11.6882C16.202 11.8682 16.34 12.0782 16.436 12.3182C16.532 12.5582 16.58 12.7952 16.58 13.0292C16.58 13.2632 16.532 13.5032 16.436 13.7492C16.34 13.9952 16.202 14.2022 16.022 14.3702L15.536 14.8742C15.116 15.2942 14.654 15.6002 14.15 15.7922C13.634 16.0082 13.088 16.1162 12.512 16.1162ZM11.018 14.2442C11.474 14.5322 11.972 14.6762 12.512 14.6762C12.896 14.6762 13.259 14.6072 13.601 14.4692C13.943 14.3312 14.246 14.1242 14.51 13.8482L15.014 13.3622C15.098 13.2542 15.14 13.1402 15.14 13.0202C15.14 12.9002 15.098 12.7982 15.014 12.7142L12.926 10.6262C12.878 10.5662 12.821 10.5272 12.755 10.5092C12.689 10.4912 12.635 10.4822 12.593 10.4822C12.551 10.4822 12.5 10.4912 12.44 10.5092C12.38 10.5272 12.32 10.5662 12.26 10.6262C12.092 10.7942 11.885 10.9292 11.639 11.0312C11.393 11.1332 11.153 11.1842 10.919 11.1842C10.685 11.1842 10.442 11.1362 10.19 11.0402C9.98596 10.9442 9.78196 10.8062 9.57796 10.6262L6.24796 7.27821C5.87596 6.90621 5.68996 6.46221 5.68996 5.94621C5.68996 5.69421 5.73796 5.45121 5.83396 5.21721C5.92996 4.98321 6.06796 4.77621 6.24796 4.59621C6.33196 4.48821 6.37396 4.38021 6.37396 4.27221C6.37396 4.16421 6.33196 4.05621 6.24796 3.94821L4.15996 1.86021C4.06396 1.76421 3.94996 1.71621 3.81796 1.71621C3.68596 1.71621 3.58396 1.76421 3.51196 1.86021L3.00796 2.34621C2.77996 2.57421 2.59696 2.83521 2.45896 3.12921C2.32096 3.42321 2.23396 3.72621 2.19796 4.03821C2.16196 4.35021 2.18296 4.66221 2.26096 4.97421C2.33896 5.28621 2.46196 5.58021 2.62996 5.85621V5.87421C3.74596 7.51821 5.00896 9.04521 6.41896 10.4552C7.82896 11.8652 9.35596 13.1282 11 14.2442H11.018Z" fill="#211F54"/>
	</symbol>
</svg>
