<svg width="17" height="13" viewBox="0 0 17 13" fill="none" xmlns="http://www.w3.org/2000/svg">
	<symbol id="post-icon">
		<path d="M14.06 12.3164H3.25999C2.92399 12.3164 2.59999 12.2534 2.28799 12.1274C1.97599 12.0014 1.70299 11.8184 1.46899 11.5784C1.23499 11.3384 1.05499 11.0654 0.92899 10.7594C0.80299 10.4534 0.73999 10.1324 0.73999 9.79641V2.59641C0.73999 2.40441 0.81199 2.23641 0.95599 2.09241C1.09999 1.94841 1.26799 1.87641 1.45999 1.87641C1.65199 1.87641 1.81999 1.94841 1.96399 2.09241C2.10799 2.23641 2.17999 2.40441 2.17999 2.59641V9.79641C2.17999 10.1084 2.28499 10.3664 2.49499 10.5704C2.70499 10.7744 2.95999 10.8764 3.25999 10.8764H14.06C14.36 10.8764 14.615 10.7744 14.825 10.5704C15.035 10.3664 15.14 10.1084 15.14 9.79641V2.59641C15.14 2.40441 15.212 2.23641 15.356 2.09241C15.5 1.94841 15.668 1.87641 15.86 1.87641C16.052 1.87641 16.22 1.94841 16.364 2.09241C16.508 2.23641 16.58 2.40441 16.58 2.59641V9.79641C16.58 10.1324 16.517 10.4534 16.391 10.7594C16.265 11.0654 16.085 11.3384 15.851 11.5784C15.617 11.8184 15.344 12.0014 15.032 12.1274C14.72 12.2534 14.396 12.3164 14.06 12.3164ZM3.25999 0.0764065H14.06C14.396 0.0764065 14.717 0.139407 15.023 0.265407C15.329 0.391407 15.602 0.574407 15.842 0.814406C16.082 1.05441 16.265 1.32741 16.391 1.63341C16.517 1.93941 16.58 2.26041 16.58 2.59641C16.58 2.71641 16.55 2.83341 16.49 2.94741C16.43 3.06141 16.346 3.14841 16.238 3.20841L9.99199 7.11441C9.59599 7.36641 9.15199 7.49241 8.65999 7.49241C8.16799 7.49241 7.72399 7.36641 7.32799 7.11441L1.08199 3.20841C0.97399 3.14841 0.88999 3.06141 0.82999 2.94741C0.76999 2.83341 0.73999 2.71641 0.73999 2.59641C0.73999 2.26041 0.80299 1.93941 0.92899 1.63341C1.05499 1.32741 1.23799 1.05441 1.47799 0.814406C1.71799 0.574407 1.99099 0.391407 2.29699 0.265407C2.60299 0.139407 2.92399 0.0764065 3.25999 0.0764065ZM15.086 2.23641C15.014 2.04441 14.882 1.87641 14.69 1.73241C14.498 1.58841 14.288 1.51641 14.06 1.51641H3.25999C3.04399 1.51641 2.83399 1.58241 2.62999 1.71441C2.46199 1.84641 2.32999 2.02041 2.23399 2.23641L8.08399 5.89041C8.26399 5.99841 8.45599 6.05241 8.65999 6.05241C8.86399 6.05241 9.05599 5.99841 9.23599 5.89041L15.086 2.23641Z" fill="#211F54"/>
	</symbol>
</svg>
