<svg width="18" height="18" viewBox="0 0 18 18" fill="none" xmlns="http://www.w3.org/2000/svg">
	<symbol id="icon-twitter">
		<path d="M12.024 0.808008H12.87L13.176 0.862008L13.302 0.898008C13.506 0.946009 13.65 0.988008 13.734 1.02401C13.914 1.09601 14.082 1.17101 14.238 1.24901C14.394 1.32701 14.532 1.41401 14.652 1.51001C14.736 1.57001 14.85 1.66001 14.994 1.78001C15.09 1.87601 15.246 1.90601 15.462 1.87001L16.146 1.67201L16.308 1.61801C16.56 1.52201 16.746 1.44401 16.866 1.38401C17.106 1.27601 17.25 1.20401 17.298 1.16801L17.388 1.13201V1.11401H17.406L17.424 1.09601H17.442L17.478 1.06001H17.496V1.11401L17.478 1.13201V1.16801H17.46V1.18601L17.442 1.22201C17.442 1.24601 17.439 1.26701 17.433 1.28501C17.427 1.30301 17.379 1.40201 17.289 1.58201C17.199 1.76201 17.076 1.96001 16.92 2.17601C16.824 2.29601 16.692 2.44001 16.524 2.60801C16.44 2.66801 16.365 2.73101 16.299 2.79701C16.233 2.86301 16.182 2.90201 16.146 2.91401L16.056 2.98601H16.038V3.00401H16.02L16.002 3.02201H15.984V3.04001H15.966V3.05801H15.948H16.038L16.488 2.95001C16.8 2.89001 17.088 2.81801 17.352 2.73401L17.802 2.59001L17.874 2.55401H17.892L17.91 2.53601H17.928L17.964 2.51801H18V2.55401H17.982V2.57201H17.964V2.59001H17.946V2.60801H17.928V2.62601C17.928 2.63801 17.856 2.73401 17.712 2.91401L17.604 3.05801C17.544 3.14201 17.508 3.18401 17.496 3.18401C17.484 3.18401 17.478 3.19001 17.478 3.20201L17.46 3.22001C17.436 3.25601 17.316 3.37601 17.1 3.58001C16.956 3.73601 16.752 3.92201 16.488 4.13801C16.284 4.30601 16.182 4.50401 16.182 4.73201C16.182 4.86401 16.17 5.09801 16.146 5.43401V5.54201C16.134 5.71001 16.098 5.98001 16.038 6.35201L16.02 6.51401C15.96 6.87401 15.87 7.26101 15.75 7.67501C15.63 8.08901 15.474 8.51801 15.282 8.96201C15.138 9.33401 14.952 9.70601 14.724 10.078C14.556 10.39 14.382 10.672 14.202 10.924L13.698 11.572C13.542 11.764 13.332 11.992 13.068 12.256L12.636 12.67L12.33 12.922C12.222 13.006 12.06 13.132 11.844 13.3L11.556 13.498C11.364 13.63 11.226 13.72 11.142 13.768L10.494 14.11C10.182 14.266 9.906 14.386 9.666 14.47C9.522 14.53 9.288 14.614 8.964 14.722L8.748 14.794C8.412 14.89 8.1 14.962 7.812 15.01C7.428 15.082 7.086 15.13 6.786 15.154L6.21 15.208H5.148L5.004 15.19C4.896 15.19 4.824 15.184 4.788 15.172L4.104 15.1C3.732 15.04 3.426 14.986 3.186 14.938C3.066 14.914 2.82 14.836 2.448 14.704L2.196 14.632C1.668 14.44 1.296 14.29 1.08 14.182C0.744 14.014 0.546 13.918 0.486 13.894L0.378 13.822C0.318 13.786 0.27 13.756 0.234 13.732L0.09 13.642H0.072L0.054 13.624H0.036V13.606H0.018V13.588H0V13.57H0.108C0.132 13.582 0.198 13.588 0.306 13.588L0.504 13.606H1.188C1.524 13.582 1.776 13.558 1.944 13.534C2.16 13.498 2.46 13.432 2.844 13.336C3.204 13.24 3.522 13.132 3.798 13.012L4.41 12.742C4.566 12.658 4.752 12.544 4.968 12.4L5.346 12.148V12.13H5.364L5.382 12.112H5.4V12.094L5.418 12.076L5.292 12.058C5.184 12.058 5.1 12.052 5.04 12.04C4.932 12.04 4.806 12.016 4.662 11.968C4.566 11.944 4.41 11.896 4.194 11.824L4.104 11.788C3.972 11.728 3.774 11.626 3.51 11.482L3.384 11.392C3.24 11.296 3.144 11.224 3.096 11.176L2.772 10.852C2.712 10.792 2.622 10.684 2.502 10.528L2.43 10.42C2.346 10.288 2.256 10.114 2.16 9.89801L2.016 9.61001V9.59201L1.998 9.57401V9.53801H2.052L2.232 9.57401C2.304 9.58601 2.49 9.59201 2.79 9.59201L3.06 9.57401C3.192 9.57401 3.276 9.56801 3.312 9.55601L3.528 9.52001L3.564 9.50201H3.6V9.48401H3.618L3.582 9.46601H3.564L3.528 9.44801H3.456C3.444 9.43601 3.426 9.43001 3.402 9.43001L3.348 9.41201C3.264 9.37601 3.114 9.31601 2.898 9.23201C2.646 9.11201 2.46 9.01601 2.34 8.94401C2.244 8.87201 2.112 8.76401 1.944 8.62001C1.86 8.54801 1.728 8.41001 1.548 8.20601L1.512 8.17001C1.332 7.94201 1.2 7.73201 1.116 7.54001C0.996 7.31201 0.906 7.08401 0.846 6.85601C0.774 6.56801 0.732 6.34601 0.72 6.19001L0.702 5.86601H0.738L0.756 5.88401H0.774L0.792 5.90201L1.044 6.01001C1.272 6.10601 1.482 6.17201 1.674 6.20801L2.124 6.29801H2.34H2.322V6.28001H2.304V6.26201H2.286L2.268 6.24401H2.25L2.088 6.11801C2.028 6.07001 1.932 5.98001 1.8 5.84801L1.512 5.52401C1.464 5.46401 1.404 5.38001 1.332 5.27201L1.242 5.14601C1.182 5.01401 1.104 4.84001 1.008 4.62401C0.912 4.36001 0.852 4.15601 0.828 4.01201C0.78 3.83201 0.756 3.62801 0.756 3.40001C0.744 3.30401 0.744 3.17801 0.756 3.02201V2.87801C0.78 2.73401 0.816 2.57201 0.864 2.39201L0.882 2.33801C0.954 2.11001 1.02 1.93601 1.08 1.81601L1.206 1.51001L1.224 1.49201V1.45601H1.26V1.47401H1.278V1.49201L1.296 1.51001V1.52801L1.512 1.76201C1.608 1.87001 1.782 2.05001 2.034 2.30201C2.214 2.48201 2.328 2.58401 2.376 2.60801C2.388 2.60801 2.4 2.62001 2.412 2.64401L2.448 2.68001C2.484 2.71601 2.592 2.80601 2.772 2.95001C2.868 3.03401 3.054 3.17201 3.33 3.36401L3.492 3.47201C3.828 3.68801 4.158 3.88601 4.482 4.06601C4.986 4.30601 5.376 4.48001 5.652 4.58801L5.742 4.62401C6.174 4.76801 6.438 4.85201 6.534 4.87601C6.738 4.94801 7.026 5.01401 7.398 5.07401C7.566 5.11001 7.782 5.14601 8.046 5.18201L8.316 5.21801L8.73 5.25401H8.838V5.20001L8.802 5.00201C8.778 4.83401 8.766 4.64801 8.766 4.44401C8.766 4.18001 8.787 3.95801 8.829 3.77801C8.871 3.59801 8.928 3.40001 9 3.18401C9.072 2.96801 9.144 2.79401 9.216 2.66201C9.264 2.57801 9.36 2.44301 9.504 2.25701C9.648 2.07101 9.804 1.90001 9.972 1.74401C10.212 1.55201 10.428 1.40201 10.62 1.29401C10.836 1.17401 11.058 1.07201 11.286 0.988008C11.514 0.904009 11.688 0.856009 11.808 0.844008L12.024 0.808008Z" fill="#0075FF"/>
	</symbol>
</svg>