<svg width="18" height="18" viewBox="0 0 18 18" fill="none" xmlns="http://www.w3.org/2000/svg">
	<symbol id="icon-youtube" viewBox="0 0 18 18" preserveAspectRatio="xMidYMid meet">
		<path d="M9.39604 13.4335L5.70604 13.3795L4.89604 13.3615C4.28404 13.3495 3.82204 13.3375 3.51004 13.3255C2.99404 13.2895 2.53804 13.2295 2.14204 13.1455C1.60204 13.0255 1.17604 12.7675 0.864036 12.3715C0.612036 12.0475 0.426036 11.6095 0.306036 11.0575C0.234036 10.7215 0.168036 10.2115 0.108036 9.52748L0.0900356 9.41948C-0.0899643 7.21148 -0.0119643 5.05148 0.324036 2.93948C0.420036 2.33948 0.654036 1.86848 1.02604 1.52648C1.39804 1.18448 1.87804 0.989478 2.46604 0.941479C5.94604 0.701478 9.94203 0.665479 14.454 0.833478C14.73 0.833478 15.144 0.881478 15.696 0.977478C16.308 1.08548 16.782 1.35548 17.118 1.78748C17.394 2.14748 17.592 2.63348 17.712 3.24548C17.796 3.60548 17.862 4.16348 17.91 4.91948L17.928 5.15348C18.072 6.86948 18.012 8.62748 17.748 10.4275C17.676 10.9915 17.574 11.4415 17.442 11.7775C17.286 12.1975 17.07 12.5275 16.794 12.7675C16.47 13.0315 16.05 13.1815 15.534 13.2175C14.274 13.3015 13.254 13.3615 12.474 13.3975C11.358 13.4455 10.338 13.4635 9.41403 13.4515C9.41403 13.4395 9.40804 13.4335 9.39604 13.4335ZM7.23603 9.77948C7.92003 9.37148 8.94003 8.77148 10.296 7.97948L11.826 7.07948L7.23603 4.37948V9.77948Z" fill="#0075FF"/>
	</symbol>
</svg>
