<svg width="778" height="736" viewBox="0 0 778 736" fill="none" xmlns="http://www.w3.org/2000/svg">
<g clip-path="url(#clip0_30312_1143)">
<g clip-path="url(#clip1_30312_1143)">
<g clip-path="url(#clip2_30312_1143)">
<mask id="mask0_30312_1143" style="mask-type:alpha" maskUnits="userSpaceOnUse" x="0" y="0" width="778" height="736">
<path d="M778 735.933H0.0200195V0.00646973H778V735.933Z" fill="#C4C4C4"/>
</mask>
<g mask="url(#mask0_30312_1143)">
<path d="M85.2441 645.488C85.2441 645.488 64.7289 539.069 64.6742 517.187C64.6086 486.903 87.7813 474.846 87.7813 474.846L78.7812 449.169H128.265L120.446 474.672C120.446 474.672 146.527 488.501 142.886 519.911C136.084 578.63 125.258 645.445 125.258 645.445L85.2441 645.488Z" fill="#EFF0F7"/>
<path d="M320.809 722.142C318.041 720.92 315.039 720.323 312.015 720.393C308.992 720.463 306.02 721.198 303.311 722.547C303.167 717.017 301.627 711.613 298.837 706.838C296.046 702.063 292.094 698.071 287.348 695.232C282.601 692.395 277.215 690.803 271.69 690.605C266.165 690.407 260.678 691.61 255.742 694.101C254.074 689.539 251.425 685.399 247.983 681.974C244.541 678.549 240.39 675.921 235.822 674.276C231.254 672.632 226.381 672.011 221.546 672.456C216.712 672.903 212.034 674.406 207.844 676.858C203.683 671.952 198.162 668.388 191.979 666.618C185.795 664.848 179.227 664.951 173.101 666.913C167.07 669.09 161.816 673.002 157.998 678.156C154.182 683.31 151.971 689.477 151.645 695.884C147.431 694.818 143.014 694.862 138.822 696.012C134.631 697.163 130.809 699.38 127.729 702.449C121.659 708.63 113.622 727.612 116.017 735.927L332.117 735.49C331.326 732.57 329.904 729.862 327.949 727.555C325.995 725.248 323.558 723.399 320.809 722.142Z" fill="#EFF0F7"/>
<path d="M729.102 645.571C729.102 645.723 565.876 645.855 364.573 645.855C163.27 645.855 0 645.713 0 645.571C0 645.428 163.193 645.276 364.573 645.276C565.953 645.276 729.102 645.407 729.102 645.571Z" fill="#DCDDEB"/>
<path d="M58.7691 548.607C53.6146 545.94 47.54 545.595 41.8104 546.515C38.7366 547.028 35.5373 547.948 33.4462 550.26C31.3551 552.572 30.9578 556.64 33.3625 558.628C34.9164 559.678 36.7874 560.151 38.653 559.967C43.1278 559.915 48.0629 559.119 51.6909 561.818C53.7296 563.367 55.0889 565.919 57.5354 566.683C58.759 566.967 60.0417 566.844 61.189 566.332C62.3363 565.821 63.2854 564.948 63.8923 563.848C65.0625 561.59 65.3207 558.969 64.6138 556.526C64.3116 554.846 63.6274 553.258 62.614 551.885C61.6005 550.512 60.285 549.391 58.7691 548.607Z" fill="#05C168"/>
<path d="M70.5939 525.783C67.4573 530.291 61.299 528.796 58.4656 526.045C55.6322 523.294 54.4194 519.308 53.3216 515.47C50.8227 506.788 48.303 497.688 50.185 488.817C50.6323 486.138 51.8079 483.633 53.583 481.578C54.482 480.566 55.6313 479.807 56.9156 479.377C58.1999 478.947 59.5745 478.862 60.9018 479.131C64.0384 479.946 65.9098 482.981 67.3004 485.867C71.3947 494.373 73.538 503.686 73.5737 513.126C73.5737 517.52 73.0719 522.122 70.6043 525.752" fill="#05C168"/>
<path d="M79.251 532.207C75.8321 528.137 75.1734 522.206 76.6999 517.112C78.2264 512.018 81.6662 507.698 85.6393 504.142C90.3128 499.998 95.7454 496.801 101.636 494.727C103.919 493.811 106.372 493.394 108.829 493.503C110.058 493.576 111.251 493.948 112.304 494.585C113.357 495.223 114.239 496.108 114.873 497.165C116.556 500.376 114.946 504.277 113.199 507.457C110.118 513.057 106.605 518.408 102.692 523.462C99.5554 527.53 95.9274 531.537 91.1283 533.367C86.3294 535.198 81.3421 534.988 78.7909 531.662" fill="#05C168"/>
<path d="M70.8027 593.774C70.6279 593.091 70.5331 592.389 70.5204 591.682C70.374 590.198 70.1858 588.325 69.9767 586.096C69.696 583.344 69.2773 580.606 68.7221 577.896C67.9824 574.598 66.986 571.363 65.7423 568.221C64.5131 565.084 62.8482 562.137 60.7969 559.465C59.1216 557.275 56.9783 555.489 54.5236 554.235C52.8761 553.423 51.1125 552.872 49.2959 552.603C48.5909 552.575 47.8904 552.477 47.2048 552.31C47.8993 552.227 48.6013 552.227 49.2959 552.31C51.1968 552.447 53.0569 552.929 54.785 553.734C57.3528 554.947 59.6068 556.737 61.3719 558.963C63.511 561.671 65.2374 564.682 66.4951 567.896C67.7622 571.081 68.7488 574.371 69.4435 577.729C69.9605 580.473 70.3098 583.247 70.489 586.034C70.6667 588.408 70.7295 590.333 70.7608 591.662C70.8576 592.362 70.8716 593.071 70.8027 593.774Z" fill="#211F54"/>
<path d="M70.4165 589.475C70.3803 589.159 70.3803 588.839 70.4165 588.524C70.4165 587.812 70.4165 586.912 70.4165 585.804C70.4165 583.45 70.4165 580.041 70.2911 575.825C70.082 567.395 69.3606 558.314 67.9596 545.49C66.6316 533.461 64.8229 519.466 62.9723 510.365C62.5646 508.273 62.1568 506.432 61.7804 504.8C61.404 503.168 61.1008 501.756 60.7975 500.616C60.4943 499.476 60.3376 498.67 60.1703 497.969C60.0764 497.668 60.0203 497.355 60.0029 497.039C60.1422 497.323 60.2509 497.621 60.3271 497.928L61.1216 500.532C61.4667 501.663 61.8327 503.064 62.2405 504.717C62.6482 506.369 63.1082 508.2 63.5578 510.271C65.8779 521.035 67.6229 531.915 68.7855 542.865C70.1865 555.679 70.8766 567.352 70.8766 575.804C70.8766 579.988 70.8766 583.45 70.7302 585.804C70.6675 586.912 70.6047 587.812 70.563 588.524C70.5573 588.846 70.508 589.166 70.4165 589.475Z" fill="#211F54"/>
<path d="M70.3638 566.965C70.2837 566.021 70.2837 565.073 70.3638 564.13C70.4684 562.3 70.7194 559.664 71.2317 556.431C71.8542 552.654 72.6885 548.913 73.7304 545.228C74.9532 540.695 76.5191 536.261 78.4145 531.965C81.6638 524.048 86.3263 516.789 92.1738 510.543C93.1849 509.47 94.264 508.464 95.4046 507.53C95.9063 507.112 96.3455 506.693 96.7846 506.359L98.0498 505.49C98.8072 504.914 99.6115 504.404 100.454 503.963C100.59 504.151 97.0669 506.222 92.6234 510.951C86.9755 517.256 82.4394 524.474 79.2091 532.3C77.3495 536.573 75.7777 540.965 74.5042 545.448C73.4282 549.096 72.5384 552.798 71.8381 556.536C71.2526 559.737 70.9179 562.352 70.7088 564.151C70.6623 565.096 70.5469 566.036 70.3638 566.965Z" fill="#211F54"/>
<path d="M92.1111 606.672L89.8526 637.571H50.1744L47.916 606.672H92.1111Z" fill="#4B3CFB"/>
<path d="M95.9482 594.497H43.1902V606.672H95.9482V594.497Z" fill="#3F37A0"/>
<path d="M95.9378 636.39V639.768H93.4599H44.0581V636.39H95.9378Z" fill="#3F37A0"/>
<path d="M91.0342 645.71L93.4598 639.769H45.9504L48.7839 645.71H91.0342Z" fill="#4B3CFB"/>
<path d="M668.59 342.032C673.743 339.364 679.819 339.018 685.548 339.939C688.622 340.452 691.821 341.372 693.912 343.684C696.003 345.996 696.4 350.065 693.996 352.053C692.442 353.101 690.571 353.575 688.706 353.391C684.23 353.339 679.295 352.544 675.667 355.242C673.629 356.791 672.269 359.343 669.823 360.107C668.599 360.391 667.317 360.268 666.17 359.756C665.023 359.244 664.073 358.372 663.467 357.272C662.296 355.014 662.038 352.392 662.744 349.95C663.047 348.27 663.73 346.683 664.744 345.31C665.757 343.937 667.074 342.815 668.59 342.032Z" fill="#05C168"/>
<path d="M656.764 319.207C659.901 323.715 666.059 322.219 668.892 319.469C671.726 316.718 672.938 312.732 674.037 308.894C676.535 300.212 679.055 291.112 677.173 282.241C676.726 279.562 675.55 277.058 673.775 275.002C672.876 273.99 671.727 273.23 670.442 272.801C669.157 272.371 667.783 272.287 666.457 272.555C663.319 273.371 661.448 276.404 660.057 279.292C655.963 287.797 653.82 297.11 653.784 306.55C653.784 310.944 654.286 315.547 656.754 319.176" fill="#05C168"/>
<path d="M648.108 325.63C651.527 321.561 652.185 315.631 650.658 310.536C649.132 305.442 645.693 301.122 641.719 297.566C637.046 293.423 631.614 290.225 625.723 288.151C623.44 287.235 620.987 286.818 618.529 286.927C617.301 287 616.108 287.371 615.054 288.009C614.002 288.647 613.12 289.533 612.486 290.588C610.803 293.8 612.413 297.701 614.158 300.882C617.241 306.481 620.753 311.832 624.666 316.886C627.804 320.955 631.432 324.961 636.23 326.792C641.029 328.622 646.017 328.413 648.567 325.086" fill="#05C168"/>
<path d="M656.555 387.199C656.731 386.514 656.825 385.813 656.838 385.106C656.984 383.621 657.172 381.748 657.382 379.521C657.662 376.768 658.081 374.031 658.636 371.32C659.376 368.022 660.373 364.787 661.616 361.644C662.845 358.508 664.511 355.561 666.562 352.89C668.237 350.7 670.38 348.912 672.835 347.659C674.482 346.848 676.246 346.297 678.062 346.028C678.768 345.999 679.468 345.901 680.153 345.734C679.459 345.651 678.757 345.651 678.062 345.734C676.161 345.871 674.302 346.354 672.573 347.157C670.006 348.371 667.752 350.161 665.987 352.387C663.847 355.095 662.121 358.106 660.864 361.32C659.596 364.506 658.61 367.795 657.915 371.153C657.397 373.897 657.048 376.671 656.87 379.458C656.692 381.833 656.629 383.758 656.597 385.085C656.501 385.786 656.487 386.495 656.555 387.199Z" fill="#211F54"/>
<path d="M656.942 382.899C656.978 382.583 656.978 382.264 656.942 381.947C656.942 381.235 656.942 380.337 656.942 379.227C656.942 376.873 656.942 373.464 657.067 369.248C657.276 360.818 657.997 351.738 659.399 338.914C660.727 326.885 662.535 312.889 664.386 303.789C664.793 301.696 665.201 299.856 665.578 298.224C665.954 296.592 666.258 295.179 666.561 294.04C666.863 292.899 667.021 292.094 667.188 291.393C667.282 291.091 667.337 290.778 667.355 290.462C667.215 290.746 667.107 291.044 667.032 291.351L666.237 293.956C665.892 295.086 665.526 296.487 665.118 298.14C664.71 299.792 664.25 301.623 663.801 303.694C661.481 314.458 659.735 325.339 658.573 336.288C657.171 349.102 656.481 360.776 656.481 369.227C656.481 373.411 656.481 376.873 656.628 379.227C656.691 380.337 656.754 381.235 656.795 381.947C656.801 382.27 656.85 382.59 656.942 382.899Z" fill="#211F54"/>
<path d="M656.995 360.39C657.076 359.447 657.076 358.498 656.995 357.554C656.891 355.724 656.639 353.088 656.127 349.857C655.505 346.078 654.67 342.338 653.628 338.654C652.406 334.119 650.84 329.686 648.945 325.39C645.695 317.473 641.032 310.214 635.185 303.967C634.174 302.895 633.095 301.888 631.954 300.954C631.453 300.536 631.013 300.117 630.574 299.783L629.309 298.915C628.552 298.34 627.747 297.829 626.905 297.388C626.768 297.576 630.292 299.647 634.735 304.375C640.384 310.68 644.919 317.899 648.15 325.724C650.01 329.997 651.581 334.391 652.855 338.873C653.931 342.521 654.821 346.222 655.521 349.961C656.106 353.162 656.441 355.777 656.65 357.575C656.696 358.521 656.812 359.461 656.995 360.39Z" fill="#211F54"/>
<path d="M629.233 544.728H614.784V602.21H629.233V544.728Z" fill="#EFF0F7"/>
<path d="M725.324 544.728H710.875V602.21H725.324V544.728Z" fill="#DCDDEB"/>
<path d="M817.987 412.24H614.583V544.623H817.987V412.24Z" fill="#EFF0F7"/>
<path d="M793.264 478.458C793.248 478.209 793.248 477.958 793.264 477.709C793.264 477.182 793.264 476.474 793.264 475.562C793.264 473.639 793.264 470.865 793.264 467.281C793.264 460.053 793.163 449.565 793.102 436.303L793.426 436.627L634.78 436.829L635.306 436.303V441.669C635.306 443.471 635.306 445.253 635.306 447.055V478.418L634.78 477.891L747.951 478.134L781.283 478.276H790.269H792.616H793.446H792.677H790.411H781.526L748.316 478.438L634.78 478.661H634.274V457.725C634.274 454.202 634.274 450.659 634.274 447.095V436.344L634.82 435.817L793.467 436.02H793.507V436.344C793.507 449.686 793.386 460.235 793.345 467.504C793.345 471.068 793.345 473.801 793.345 475.724C793.345 476.616 793.345 477.303 793.345 477.749C793.345 478.195 793.264 478.458 793.264 478.458Z" fill="#DCDDEB"/>
<path d="M720.871 457.381C720.871 458.755 720.463 460.097 719.701 461.239C718.938 462.381 717.854 463.271 716.586 463.797C715.317 464.323 713.922 464.46 712.575 464.192C711.228 463.924 709.991 463.263 709.021 462.291C708.05 461.32 707.389 460.083 707.121 458.736C706.853 457.388 706.99 455.992 707.516 454.723C708.042 453.454 708.931 452.369 710.073 451.607C711.214 450.844 712.556 450.436 713.929 450.436C715.77 450.436 717.536 451.167 718.838 452.47C720.139 453.773 720.871 455.539 720.871 457.381Z" fill="#DCDDEB"/>
<path d="M644.311 362.725L652.083 373.901C652.083 373.901 634.597 378.761 634.597 394.291C634.597 409.82 645.283 412.736 656.859 412.736C668.435 412.736 679.667 409.334 679.121 393.805C678.575 378.275 664.064 372.443 664.064 372.443L671.349 362.725H644.311Z" fill="#0075FF"/>
<path d="M566.071 77.1268C566.527 76.6894 569.664 78.9339 573.771 83.5751C576.168 86.3025 578.355 89.2084 580.311 92.2679C582.706 96.0262 584.81 99.9624 586.604 104.042C588.349 108.146 589.786 112.374 590.901 116.692C591.8 120.216 592.435 123.802 592.802 127.419C593.373 133.601 592.803 137.425 592.232 137.463C590.749 137.463 589.399 122.608 582.098 106.021C574.797 89.4337 564.968 78.135 566.071 77.1268Z" fill="#05C168"/>
<path d="M597.08 149.808C596.434 149.808 594.666 141.724 593.011 128.314C591.357 114.903 589.97 96.2818 589.437 75.7005C588.905 55.1194 589.114 36.5163 589.437 23.0491C589.76 9.58191 590.483 1.2505 591.167 1.2505C591.851 1.2505 592.46 9.58189 592.935 23.0301C593.411 36.4782 593.753 55.0813 594.304 75.5674C594.856 96.0535 595.654 114.581 596.434 127.99C597.213 141.401 597.803 149.808 597.08 149.808Z" fill="#05C168"/>
<path d="M627.082 32.9214C627.729 33.2828 625.182 39.0082 621.74 48.557C618.299 58.1059 614.021 71.3828 609.838 86.3337C605.655 101.285 602.499 114.866 600.56 124.871C598.621 134.877 597.822 141.039 597.081 141.02C596.339 141.002 595.94 134.572 597.081 124.339C598.724 111.048 601.387 97.9031 605.047 85.0212C608.554 72.097 613.047 59.4612 618.489 47.2255C622.805 37.848 626.55 32.598 627.082 32.9214Z" fill="#05C168"/>
<path d="M558.465 132.689V149.066C558.46 153.658 559.359 158.205 561.113 162.45C562.865 166.694 565.438 170.55 568.681 173.799C571.925 177.047 575.777 179.625 580.017 181.383C584.257 183.142 588.802 184.047 593.392 184.047C597.98 184.049 602.524 183.147 606.764 181.392C611.002 179.638 614.856 177.064 618.101 173.819C621.345 170.574 623.92 166.721 625.677 162.48C627.433 158.24 628.337 153.694 628.337 149.104V132.689H558.465Z" fill="#6E7191"/>
<path d="M834.188 184.085H511.789V202.745H834.188V184.085Z" fill="#EFF0F7"/>
<path d="M583.542 202.745H572.914V235.042H583.542V202.745Z" fill="#DCDDEB"/>
<path d="M760.399 202.745H749.77V235.042H760.399V202.745Z" fill="#DCDDEB"/>
<path d="M863.713 383.775V412.223H741.415C737.657 412.223 734.053 410.729 731.397 408.072C728.74 405.414 727.248 401.809 727.248 398.05C727.248 394.291 728.74 390.686 731.397 388.028C734.053 385.37 737.657 383.876 741.415 383.876" fill="#3F37A0"/>
<path d="M863.713 356.442V384.89H741.415C737.657 384.89 734.053 383.396 731.397 380.738C728.74 378.08 727.248 374.475 727.248 370.717C727.248 366.957 728.74 363.352 731.397 360.695C734.053 358.037 737.657 356.543 741.415 356.543L863.713 356.442Z" fill="#4B3CFB"/>
<path d="M696.022 116.863L688.721 184.656H782.283L790.059 116.863H696.022Z" fill="#DCDDEB"/>
<path d="M699.862 121.733L692.751 181.061H777.206L784.051 121.733H699.862Z" fill="white"/>
<path d="M714.085 131.699L709.711 171.074H763.004L765.741 131.699H714.085Z" fill="#4B3CFB"/>
<g filter="url(#filter0_d_30312_1143)">
<path d="M595.763 591.182L607.435 645.975H592.462L567.393 590.26L595.763 591.182Z" fill="#6E7191"/>
<path d="M595.762 591.183H595.207H593.721L588.033 591.044L567.353 590.478L567.541 590.201L588.875 637.46C590.15 640.314 591.415 643.127 592.67 645.896L592.433 645.737H607.406L607.167 646.035C603.828 630.173 600.955 616.472 598.904 606.747C597.912 601.889 597.1 598.023 596.545 595.337C596.278 594.018 596.069 592.996 595.931 592.273C595.861 591.936 595.812 591.678 595.772 591.47C595.763 591.377 595.763 591.285 595.772 591.192C595.801 591.273 595.825 591.356 595.841 591.44L596.02 592.204C596.179 592.918 596.406 593.918 596.694 595.178L599.171 606.538C601.282 616.294 604.234 630.004 607.673 645.926L607.742 646.223H592.294L592.234 646.075L588.429 637.638C580.304 619.505 572.862 602.94 567.214 590.33L567.085 590.042H567.392L588.201 590.816L593.85 591.053L595.306 591.123C595.46 591.132 595.612 591.152 595.762 591.183Z" fill="#6E7191"/>
<path d="M181.868 591.182L170.195 645.975H185.157L210.238 590.26L181.868 591.182Z" fill="#6E7191"/>
<path d="M181.868 591.183C182.028 591.17 182.191 591.17 182.352 591.183L183.809 591.113L189.448 590.875L210.257 590.102H210.574L210.445 590.389L189.22 637.698C187.938 640.553 186.673 643.365 185.424 646.134L185.355 646.283H169.887L169.947 645.985C173.384 630.064 176.348 616.354 178.449 606.598C179.508 601.78 180.351 597.933 180.936 595.267C181.233 593.969 181.451 592.967 181.609 592.293L181.798 591.53C181.798 591.362 181.857 591.272 181.868 591.282C181.856 591.375 181.839 591.468 181.817 591.559C181.817 591.767 181.729 592.025 181.669 592.362C181.521 593.086 181.313 594.108 181.055 595.426C180.5 598.112 179.697 601.979 178.686 606.836C176.645 616.562 173.731 630.243 170.432 646.124L170.194 645.826H185.157L184.929 645.985C186.171 643.216 187.436 640.404 188.724 637.549L210.059 590.29L210.237 590.568L189.557 591.133L183.879 591.272H182.383L181.868 591.183Z" fill="#6E7191"/>
<path d="M627.928 536.459H184.196V607.54H627.928V536.459Z" fill="#CBCDDC"/>
<path d="M400.086 479.574V399.472C400.084 398.065 400.358 396.672 400.894 395.372C401.43 394.072 402.218 392.89 403.21 391.895C404.204 390.899 405.383 390.11 406.682 389.571C407.98 389.032 409.372 388.755 410.778 388.755H597.714C600.547 388.755 603.264 389.88 605.267 391.885C607.27 393.889 608.396 396.608 608.396 399.442V510.752L399.808 516.701L400.086 479.574Z" fill="#CBCDDC"/>
<path d="M190.815 479.574V399.472C190.816 398.062 191.096 396.667 191.637 395.365C192.177 394.064 192.969 392.881 193.966 391.886C194.964 390.891 196.148 390.102 197.45 389.565C198.753 389.028 200.148 388.752 201.557 388.755H389.355C392.194 388.749 394.92 389.872 396.932 391.876C398.944 393.88 400.078 396.602 400.087 399.442L399.809 516.661L190.815 510.713V479.574Z" fill="#CBCDDC"/>
<path d="M655.534 606.776H607.594C603.115 606.776 599.488 602.018 599.488 596.148V469.591C599.488 463.721 603.115 458.963 607.722 458.963H655.653C660.004 458.963 663.58 463.721 663.58 469.591V596.148C663.64 602.018 660.013 606.776 655.534 606.776Z" fill="#CBCDDC"/>
<path d="M655.534 606.776C655.534 606.776 655.891 606.776 656.526 606.648C657.541 606.467 658.501 606.053 659.33 605.438C660.659 604.423 661.706 603.086 662.372 601.552C662.81 600.582 663.119 599.559 663.293 598.508C663.468 597.308 663.534 596.092 663.492 594.88C663.492 584.55 663.442 569.61 663.403 551.15C663.363 532.691 663.403 510.703 663.403 486.286C663.403 483.232 663.403 480.146 663.403 477.026V472.307C663.457 470.733 663.408 469.157 663.253 467.588C663.026 466.026 662.501 464.521 661.708 463.157C660.927 461.778 659.772 460.647 658.378 459.896C657.686 459.525 656.922 459.306 656.139 459.251C655.356 459.182 654.504 459.251 653.692 459.251H607.634C605.917 459.317 604.288 460.025 603.066 461.234C601.84 462.426 600.926 463.899 600.4 465.526C599.895 467.162 599.674 468.872 599.746 470.582V496.011C599.746 509.295 599.746 522.114 599.746 534.318C599.746 546.521 599.746 558.11 599.746 569.016C599.746 574.435 599.746 579.673 599.746 584.729V592.134C599.746 593.334 599.746 594.533 599.746 595.713C599.715 596.868 599.822 598.023 600.063 599.153C600.496 601.341 601.593 603.341 603.204 604.883C603.988 605.602 604.923 606.137 605.939 606.449C606.952 606.685 607.994 606.771 609.031 606.707H620.774H639.601L651.491 606.757H639.601H620.774H609.031C607.963 606.829 606.891 606.738 605.85 606.489C604.78 606.176 603.797 605.62 602.977 604.863C601.298 603.267 600.155 601.188 599.706 598.915C599.46 597.759 599.346 596.578 599.37 595.395V591.817C599.37 589.398 599.37 586.929 599.37 584.411C599.37 579.368 599.37 574.13 599.37 568.698C599.37 557.793 599.37 546.244 599.37 534C599.37 521.757 599.37 508.978 599.37 495.693C599.37 489.084 599.37 482.33 599.37 475.43V470.265C599.301 468.501 599.533 466.738 600.053 465.05C600.602 463.339 601.566 461.789 602.858 460.54C604.177 459.262 605.927 458.523 607.762 458.468H653.672C654.504 458.468 655.297 458.468 656.159 458.468C657.007 458.536 657.833 458.775 658.587 459.171C660.064 459.967 661.286 461.162 662.114 462.622C662.941 464.04 663.487 465.605 663.719 467.232C663.876 468.825 663.928 470.429 663.878 472.03C663.878 473.606 663.878 475.182 663.878 476.748V486.008C663.878 510.425 663.878 532.404 663.819 550.873C663.759 569.343 663.759 584.272 663.739 594.603C663.777 595.827 663.701 597.051 663.511 598.26C663.321 599.325 662.987 600.359 662.521 601.333C661.844 602.905 660.768 604.273 659.399 605.299C658.554 605.91 657.576 606.311 656.545 606.469C656.218 606.602 655.879 606.705 655.534 606.776Z" fill="#6E7191"/>
<path d="M594.305 509.305H407.934C403.228 509.305 399.413 513.122 399.413 517.831V541.852C399.413 546.56 403.228 550.378 407.934 550.378H594.305C599.012 550.378 602.827 546.56 602.827 541.852V517.831C602.827 513.122 599.012 509.305 594.305 509.305Z" fill="#CBCDDC"/>
<path d="M594.305 550.348C594.305 550.348 594.722 550.348 595.514 550.219C597.066 549.981 598.521 549.318 599.72 548.304C600.918 547.288 601.812 545.961 602.302 544.469C602.659 543.284 602.8 542.046 602.718 540.811C602.718 539.483 602.718 538.065 602.718 536.568C602.718 533.594 602.718 530.223 602.718 526.575C602.718 524.751 602.718 522.837 602.718 520.865C602.718 518.892 602.956 516.77 602.153 514.827C601.368 512.789 599.817 511.138 597.834 510.228C595.801 509.236 593.394 509.523 590.986 509.474H575.676L407.924 509.622C405.939 509.625 404.02 510.348 402.524 511.655C401.031 512.945 400.059 514.736 399.789 516.691C399.7 517.679 399.669 518.673 399.7 519.665V540.564C399.657 541.521 399.709 542.481 399.859 543.428C400.037 544.351 400.373 545.236 400.849 546.045C401.807 547.674 403.304 548.915 405.081 549.555C406.814 550.248 408.757 550.021 410.669 550.06H449.423L524.813 550.12L575.626 550.23L589.5 550.288L575.626 550.348L524.813 550.447L449.423 550.517H407.806C406.295 550.501 404.813 550.097 403.503 549.343C402.193 548.589 401.098 547.512 400.324 546.215C399.806 545.343 399.438 544.392 399.234 543.398C399.081 542.415 399.025 541.419 399.066 540.425V519.675C399.03 518.65 399.063 517.623 399.165 516.602C399.459 514.492 400.517 512.563 402.138 511.179C403.753 509.778 405.817 509.004 407.954 508.998L575.626 509.087H590.936H594.504C595.69 509.107 596.858 509.377 597.932 509.881C599.447 510.579 600.731 511.696 601.63 513.102C602.53 514.508 603.007 516.142 603.006 517.811C603.006 518.802 603.006 519.854 603.006 520.845C603.006 522.828 603.006 524.731 603.006 526.555C603.006 530.204 603.006 533.544 603.006 536.549C603.006 538.045 603.006 539.463 603.006 540.791C603.079 542.048 602.924 543.308 602.55 544.509C601.918 546.39 600.654 547.995 598.972 549.049C597.948 549.695 596.795 550.109 595.593 550.259C595.168 550.336 594.736 550.365 594.305 550.348Z" fill="#6E7191"/>
<path d="M183.067 607.539H135.127C130.658 607.539 127.021 602.781 127.021 596.912V470.365C127.021 464.495 130.658 459.737 135.265 459.737H183.195C187.546 459.737 191.122 464.495 191.122 470.365V596.942C191.173 602.781 187.546 607.539 183.067 607.539Z" fill="#CBCDDC"/>
<path d="M183.066 607.54C183.066 607.54 183.424 607.54 184.058 607.422C185.07 607.231 186.028 606.818 186.861 606.211C188.193 605.2 189.241 603.862 189.904 602.326C190.34 601.354 190.649 600.331 190.825 599.282C190.999 598.081 191.067 596.866 191.024 595.654C191.024 585.313 191.024 570.374 190.944 551.924C190.865 533.475 190.944 511.466 190.885 487.059C190.885 484.006 190.885 480.916 190.885 477.79V473.081C190.939 471.503 190.89 469.923 190.736 468.352C190.506 466.793 189.982 465.293 189.19 463.931C188.414 462.547 187.259 461.416 185.861 460.669C185.167 460.3 184.404 460.078 183.621 460.014C182.838 459.955 181.986 460.014 181.174 460.014H176.219H135.126C133.415 460.064 131.785 460.753 130.558 461.948C129.333 463.14 128.417 464.614 127.893 466.24C127.386 467.872 127.165 469.579 127.239 471.287V496.715C127.239 510.009 127.239 522.817 127.239 535.032C127.239 547.245 127.239 558.824 127.239 569.729C127.239 575.152 127.239 580.396 127.239 585.432V592.838C127.239 594.048 127.239 595.237 127.239 596.427C127.208 597.582 127.315 598.737 127.555 599.867C127.993 602.053 129.089 604.053 130.697 605.598C131.481 606.313 132.415 606.844 133.431 607.153C134.443 607.396 135.485 607.487 136.523 607.422H148.265H167.093L178.984 607.471L167.093 607.52H148.265H136.523C135.456 607.588 134.384 607.497 133.343 607.252C132.296 607.002 131.316 606.529 130.468 605.865C128.792 604.267 127.65 602.189 127.199 599.916C126.951 598.761 126.841 597.579 126.872 596.397C126.872 595.207 126.872 594.018 126.872 592.808C126.872 590.389 126.872 587.921 126.872 585.403C126.872 580.367 126.872 575.123 126.872 569.7C126.872 558.795 126.872 547.235 126.872 535.002C126.872 522.768 126.872 509.98 126.872 496.686C126.872 490.076 126.872 483.321 126.872 476.421V471.257C126.788 469.509 126.998 467.759 127.496 466.082C128.045 464.37 129.008 462.82 130.3 461.571C131.629 460.276 133.401 459.535 135.255 459.499H181.313C182.145 459.499 182.938 459.499 183.8 459.499C184.649 459.562 185.476 459.802 186.227 460.202C187.708 460.994 188.931 462.191 189.755 463.653C190.582 465.071 191.128 466.637 191.36 468.263C191.517 469.857 191.569 471.46 191.519 473.061V487.04C191.519 511.447 191.519 533.436 191.46 551.904C191.4 570.374 191.4 585.293 191.38 595.634C191.418 596.858 191.341 598.083 191.152 599.292C190.965 600.357 190.631 601.391 190.162 602.365C189.48 603.917 188.404 605.264 187.04 606.271C186.195 606.884 185.217 607.288 184.186 607.451C183.816 607.513 183.441 607.543 183.066 607.54Z" fill="#6E7191"/>
<path d="M390.891 508.849H193.035C188.329 508.849 184.514 512.667 184.514 517.375V542.308C184.514 547.017 188.329 550.834 193.035 550.834H390.891C395.598 550.834 399.413 547.017 399.413 542.308V517.375C399.413 512.667 395.598 508.849 390.891 508.849Z" fill="#CBCDDC"/>
<path d="M390.891 550.834C390.891 550.834 391.327 550.834 392.169 550.695C393.799 550.429 395.316 549.692 396.531 548.573C397.747 547.454 398.607 546.003 399.006 544.4C399.266 543.122 399.356 541.815 399.274 540.513C399.274 539.116 399.274 537.628 399.274 536.052C399.274 532.89 399.274 529.381 399.274 525.534C399.274 523.611 399.274 521.568 399.274 519.527C399.274 518.485 399.274 517.405 399.205 516.354C399.081 515.28 398.743 514.242 398.213 513.301C397.659 512.306 396.908 511.436 396.005 510.744C395.101 510.051 394.066 509.552 392.962 509.275C391.786 509.033 390.583 508.947 389.384 509.018H385.618H369.516L193.075 509.116C190.99 509.115 188.983 509.907 187.461 511.333C185.938 512.757 185.015 514.708 184.88 516.79C184.88 521.013 184.88 525.266 184.88 529.46C184.88 533.653 184.88 537.817 184.88 541.951C184.824 543.956 185.488 545.916 186.752 547.473C188.004 548.997 189.763 550.021 191.707 550.358C192.693 550.477 193.688 550.517 194.68 550.477H238.478L317.801 550.546L371.31 550.645L385.847 550.705L371.31 550.754L317.801 550.863L238.478 550.922H194.67C193.64 550.968 192.61 550.924 191.588 550.794C189.473 550.446 187.557 549.339 186.199 547.681C184.84 546.022 184.131 543.926 184.206 541.782C184.206 537.651 184.206 533.488 184.206 529.291C184.206 525.078 184.206 520.884 184.206 516.582C184.356 514.343 185.351 512.244 186.988 510.709C188.625 509.175 190.782 508.318 193.025 508.314L369.467 508.413H385.569H389.335C390.564 508.35 391.797 508.446 393.001 508.7C394.151 508.994 395.23 509.519 396.17 510.243C397.111 510.968 397.893 511.876 398.471 512.914C399.008 513.902 399.345 514.987 399.462 516.106C399.571 517.216 399.512 518.267 399.521 519.318C399.521 521.4 399.521 523.403 399.521 525.326C399.521 529.173 399.521 532.679 399.521 535.844C399.521 537.42 399.521 538.908 399.521 540.305C399.599 541.635 399.496 542.969 399.214 544.271C398.797 545.899 397.905 547.367 396.653 548.487C395.4 549.608 393.843 550.331 392.179 550.566C391.851 550.612 391.52 550.636 391.188 550.635L390.891 550.834Z" fill="#6E7191"/>
<path d="M400.086 398.569C400.265 398.569 400.403 424.196 400.403 455.801C400.403 487.406 400.265 513.033 400.086 513.033C399.908 513.033 399.779 487.415 399.779 455.801C399.779 424.186 399.918 398.569 400.086 398.569Z" fill="#6E7191"/>
<path d="M506.867 434.794C506.867 434.794 506.678 435.062 506.43 435.557C506.108 436.261 505.997 437.043 506.114 437.808C506.182 438.363 506.372 438.896 506.667 439.371C506.963 439.845 507.36 440.249 507.828 440.554C508.431 440.833 509.1 440.939 509.759 440.862C510.419 440.786 511.045 440.528 511.567 440.118C512.09 439.708 512.489 439.161 512.722 438.538C512.953 437.915 513.008 437.241 512.881 436.589C512.696 436.062 512.396 435.583 512.003 435.185C511.611 434.788 511.136 434.481 510.613 434.288C509.894 433.993 509.104 433.92 508.343 434.08C507.809 434.199 507.531 434.368 507.501 434.318C507.707 434.088 507.976 433.923 508.274 433.843C509.081 433.571 509.954 433.571 510.761 433.843C511.372 434.038 511.93 434.37 512.393 434.813C512.857 435.257 513.214 435.799 513.436 436.401C513.693 437.135 513.693 437.935 513.436 438.67C513.151 439.44 512.661 440.116 512.018 440.625C511.375 441.134 510.604 441.455 509.79 441.555C509.016 441.645 508.233 441.47 507.57 441.06C507.037 440.705 506.592 440.233 506.27 439.68C505.947 439.126 505.754 438.506 505.707 437.867C505.62 437.022 505.815 436.171 506.262 435.448C506.549 434.942 506.847 434.774 506.867 434.794Z" fill="#6E7191"/>
<path d="M525.843 419.864C525.843 419.974 524.575 419.992 522.632 420.548C520.101 421.248 517.789 422.579 515.911 424.417C514.035 426.255 512.654 428.54 511.9 431.057C511.306 433.039 511.247 434.259 511.138 434.248C511.077 433.954 511.077 433.651 511.138 433.357C511.178 432.539 511.304 431.728 511.515 430.938C512.176 428.288 513.559 425.876 515.51 423.966C517.46 422.057 519.902 420.726 522.563 420.122C523.357 419.934 524.166 419.823 524.981 419.795C525.27 419.762 525.563 419.785 525.843 419.864Z" fill="#6E7191"/>
<path d="M481.956 440.991C482.105 440.682 482.307 440.4 482.551 440.158C483.164 439.448 483.847 438.804 484.591 438.234C487.06 436.321 490.031 435.166 493.144 434.913C496.257 434.66 499.375 435.318 502.121 436.806C502.943 437.232 503.72 437.74 504.439 438.323C504.945 438.76 505.193 439.028 505.163 439.057C505.133 439.087 504.004 438.175 501.913 437.164C499.209 435.828 496.193 435.251 493.187 435.498C490.182 435.745 487.299 436.803 484.849 438.561C482.956 439.93 482.045 441.069 481.956 440.991Z" fill="#6E7191"/>
<path d="M511.455 451.369C511.385 451.369 510.89 450.884 510.207 449.922C509.247 448.668 508.61 447.198 508.353 445.64C508.244 444.838 508.322 444.023 508.581 443.257C508.841 442.492 509.275 441.797 509.849 441.228C510.841 440.385 511.653 440.405 511.643 440.465C511.633 440.524 510.919 440.712 510.167 441.545C509.704 442.097 509.361 442.738 509.16 443.43C508.959 444.12 508.903 444.846 508.998 445.56C509.26 447.026 509.805 448.427 510.603 449.684C510.967 450.202 511.254 450.77 511.455 451.369Z" fill="#6E7191"/>
</g>
<path d="M609.212 629.862L627.587 684.941L555.177 709.263C553.381 702.588 586.399 676.88 586.399 676.88L573.127 642.108L609.212 629.862Z" fill="#A0A3BD"/>
<g opacity="0.6">
<path opacity="0.6" d="M627.546 685.013L625.511 679.484L556.817 704.81C556.817 704.81 553.99 707.214 555.135 709.236L627.546 685.013Z" fill="white"/>
</g>
<path d="M581.948 659.969C583.24 659.883 584.488 659.459 585.566 658.739C586.797 658.086 587.945 657.289 588.987 656.363C589.601 655.819 590.181 655.239 590.726 654.624C591.054 654.274 591.329 653.878 591.544 653.451C591.697 653.14 591.736 652.787 591.656 652.452C591.576 652.116 591.382 651.82 591.107 651.612C590.843 651.437 590.543 651.326 590.229 651.284C589.916 651.242 589.597 651.272 589.298 651.371C588.837 651.524 588.4 651.737 587.997 652.008C587.288 652.419 586.616 652.892 585.99 653.422C584.951 654.345 584.059 655.424 583.347 656.617C582.159 658.654 582.018 660.096 582.159 660.124C582.301 660.153 582.824 658.852 584.111 657.07C584.875 656.02 585.767 655.07 586.767 654.242C587.359 653.76 587.988 653.325 588.647 652.941C589.34 652.489 589.99 652.263 590.301 652.517C590.612 652.771 590.443 652.673 590.301 652.927C590.139 653.24 589.934 653.531 589.693 653.789C589.203 654.38 588.679 654.941 588.125 655.472C587.174 656.381 586.143 657.2 585.043 657.919C583.971 658.539 582.937 659.223 581.948 659.969Z" fill="#263238"/>
<path d="M582.569 660.294C582.925 659.104 582.87 657.829 582.414 656.674C582.044 655.381 581.445 654.166 580.648 653.083C580.162 652.439 579.613 651.847 579.007 651.314C578.646 650.922 578.19 650.629 577.683 650.464C577.175 650.298 576.634 650.264 576.11 650.367C575.802 650.472 575.529 650.659 575.319 650.909C575.11 651.158 574.972 651.459 574.923 651.781C574.846 652.25 574.846 652.727 574.923 653.195C575.06 653.999 575.321 654.777 575.7 655.501C576.346 656.723 577.29 657.764 578.443 658.526C579.466 659.336 580.761 659.721 582.06 659.601C582.131 659.39 580.647 659.163 579.022 657.82C578.073 657.055 577.305 656.088 576.774 654.991C576.48 654.355 576.279 653.678 576.18 652.984C576.04 652.22 576.18 651.569 576.45 651.569C576.757 651.56 577.061 651.617 577.345 651.737C577.628 651.856 577.881 652.036 578.089 652.263C578.644 652.734 579.155 653.254 579.615 653.818C580.389 654.782 581.018 655.854 581.481 656.999C582.315 658.936 582.358 660.308 582.569 660.294Z" fill="#263238"/>
<path d="M463.671 642.588L466.978 699.972L390.653 700.976C390.993 694.076 430.229 679.765 430.229 679.765L428.237 642.588H463.671Z" fill="#A0A3BD"/>
<g opacity="0.6">
<path opacity="0.6" d="M466.979 700.031L466.682 694.19L393.565 697.33C393.565 697.33 390.188 698.744 390.611 701.035L466.979 700.031Z" fill="white"/>
</g>
<path d="M429.536 670.872C429.692 671.183 431.403 670.673 433.508 670.787C435.615 670.9 437.268 671.494 437.452 671.197C437.636 670.9 436.039 669.656 433.565 669.556C431.091 669.457 429.339 670.618 429.536 670.872Z" fill="#263238"/>
<path d="M431.219 662.302C432.476 662.601 433.789 662.577 435.035 662.231C436.406 661.979 437.743 661.57 439.021 661.015C439.772 660.689 440.499 660.311 441.198 659.884C441.622 659.66 442.009 659.369 442.343 659.022C442.593 658.78 442.746 658.455 442.773 658.108C442.799 657.761 442.696 657.416 442.483 657.141C442.286 656.894 442.033 656.695 441.748 656.56C441.461 656.425 441.147 656.358 440.83 656.363C440.352 656.365 439.876 656.431 439.417 656.56C438.607 656.759 437.818 657.028 437.057 657.367C435.783 657.926 434.606 658.68 433.565 659.601C431.812 661.171 431.233 662.5 431.36 662.571C431.488 662.641 432.378 661.567 434.187 660.265C435.229 659.503 436.365 658.877 437.565 658.399C438.276 658.119 439.009 657.897 439.756 657.735C440.562 657.522 441.169 657.509 441.466 657.847C441.537 657.975 441.551 658.018 441.382 658.244C441.137 658.496 440.855 658.71 440.548 658.88C439.898 659.287 439.229 659.66 438.54 659.997C437.362 660.583 436.132 661.057 434.866 661.411C433.63 661.618 432.411 661.916 431.219 662.302Z" fill="#263238"/>
<path d="M431.714 662.797C432.413 661.767 432.746 660.532 432.661 659.29C432.703 657.951 432.507 656.615 432.082 655.345C431.819 654.581 431.478 653.846 431.064 653.153C430.84 652.669 430.496 652.251 430.066 651.937C429.636 651.622 429.133 651.423 428.605 651.357C428.27 651.362 427.944 651.46 427.663 651.643C427.383 651.826 427.161 652.085 427.022 652.389C426.827 652.81 426.699 653.258 426.64 653.719C426.512 654.529 426.512 655.355 426.64 656.165C426.878 657.524 427.462 658.801 428.336 659.87C429.849 661.722 431.417 662.132 431.446 662.005C431.474 661.878 430.259 661.17 429.086 659.388C428.416 658.367 427.986 657.207 427.827 655.995C427.728 655.301 427.728 654.597 427.827 653.903C427.941 653.138 428.237 652.489 428.534 652.587C428.831 652.686 429.566 653.153 429.948 653.761C430.341 654.377 430.673 655.031 430.937 655.712C431.376 656.864 431.643 658.074 431.729 659.304C431.869 661.425 431.503 662.755 431.714 662.797Z" fill="#263238"/>
<path d="M442.937 411.117C442.937 411.117 413.155 556.16 413.155 561.11C413.155 566.058 424.647 673.274 424.647 673.274H468.307L458.317 557.165L493.749 459.946L490.216 411.117H442.937Z" fill="#211F54"/>
<path d="M486.624 436.005C487.332 440.841 575.091 667.236 575.091 667.236L618.441 651.921C618.031 651.921 568.414 519.101 568.414 519.101C568.414 519.101 566.827 448.268 562.616 413.123C559.966 390.997 540.039 377.956 540.039 377.956L482.229 408.529L486.624 436.005Z" fill="#211F54"/>
<path d="M417.607 274.473C417.325 275.887 443.486 365.433 443.486 365.433L445.439 397.713L441.707 413.124C441.707 413.124 472.123 416.801 494.894 417.819C517.665 418.837 541.234 381.403 541.234 381.403L529.622 283.411L488.632 235.939L472.901 240.663C472.901 240.663 463.898 271.433 437.693 259.639L434.159 261.662L417.607 274.473Z" fill="#0075FF"/>
<path d="M420.102 263.207L447.427 249.556L485.212 237.017C485.212 237.017 507.055 232.344 520.275 239.747C531.85 246.261 537.542 357.785 537.542 357.785L540.794 380.023L445.807 398.032L447.427 375.982C447.427 375.982 428.622 341.523 424.273 326.4C422.618 304.441 420.102 263.207 420.102 263.207Z" fill="#0075FF"/>
<path d="M528.409 272.743C528.33 272.803 528.245 272.852 528.155 272.89L527.415 273.254C526.766 273.57 525.819 273.99 524.635 274.485C518.443 277.049 511.951 278.823 505.315 279.763C504.044 279.94 503.01 280.06 502.291 280.116L501.471 280.174C501.374 280.194 501.277 280.201 501.178 280.194C501.27 280.164 501.366 280.143 501.463 280.133L502.277 280.011C502.989 279.92 504.026 279.765 505.282 279.56C508.576 279.025 511.84 278.32 515.063 277.451C518.278 276.565 521.445 275.512 524.552 274.296C525.743 273.83 526.704 273.439 527.367 273.157L528.134 272.845C528.222 272.801 528.315 272.767 528.409 272.743Z" fill="white"/>
<path d="M456.116 115.35C456.961 114.091 458.085 113.043 459.401 112.288C460.717 111.534 462.189 111.093 463.703 111.002C464.933 110.917 466.31 111.057 467.237 110.244C467.816 109.571 468.279 108.806 468.605 107.979C468.961 107.417 469.427 106.93 469.973 106.55C470.52 106.17 471.138 105.902 471.789 105.764C472.441 105.627 473.114 105.62 473.768 105.746C474.423 105.872 475.045 106.128 475.598 106.498C476.068 106.959 476.611 107.338 477.203 107.622C479.771 108.427 481.559 103.554 484.12 104.382C483.134 104.978 482.355 105.861 481.885 106.913C481.664 107.442 481.627 108.031 481.781 108.584C481.934 109.137 482.27 109.622 482.731 109.961C485.272 111.487 488.094 106.532 490.821 107.678C492.303 108.337 492.882 110.511 494.483 110.597C495.099 110.547 495.703 110.391 496.267 110.137C497.276 109.88 498.347 110.017 499.259 110.52C500.172 111.024 500.858 111.856 501.18 112.847C501.673 114.553 501.184 116.833 502.699 117.764C503.632 118.333 504.836 117.996 505.88 117.641C506.144 119.249 506.04 120.896 505.576 122.457C507.115 123.083 508.352 124.281 509.027 125.799C509.703 127.319 509.764 129.04 509.198 130.602C510.828 131.334 512.298 132.376 513.526 133.674C514.666 135.037 515.234 137.036 514.46 138.64C514.248 138.983 514.084 139.354 513.974 139.743C513.931 140.184 514.01 140.626 514.2 141.025C514.828 142.592 515.83 144.041 516.054 145.714C516.278 147.385 515.398 149.431 513.715 149.588C513.328 149.614 512.874 149.57 512.588 149.842C512.394 150.072 512.3 150.37 512.325 150.669C512.434 151.882 512.734 153.069 513.212 154.188C513.692 155.317 513.723 156.587 513.301 157.74C512.781 158.837 511.207 159.467 510.313 158.667C511.122 160.427 511.926 162.195 512.735 163.956C513.212 165.006 513.661 166.296 513.026 167.249C512.175 168.493 510.126 168.002 509.102 166.89C508.078 165.778 507.581 164.256 506.552 163.167C506.08 162.767 505.652 162.318 505.275 161.828C505.01 161.419 504.86 160.896 504.431 160.658C503.573 160.184 502.614 161.427 502.894 162.37C503.173 163.312 504.063 163.906 504.8 164.526C505.538 165.146 506.234 166.144 505.886 167.069C505.726 167.508 505.339 167.871 505.209 168.3C504.685 169.864 506.997 170.848 507.525 172.398C507.918 173.539 507.256 174.761 506.562 175.756C505.715 176.968 503.876 178.158 502.991 176.976C502.77 176.515 502.573 176.041 502.404 175.559C502.041 175.077 501.566 174.691 501.02 174.434C499.746 173.642 498.734 172.491 498.11 171.125C499.605 172.418 501.263 174.188 500.708 176.082C500.389 176.849 499.958 177.562 499.429 178.203C498.532 179.547 498.111 181.18 497.229 182.54C496.348 183.9 494.693 185.008 493.161 184.497C493.546 185.227 493.672 186.064 493.52 186.875C493.369 187.687 492.947 188.422 492.325 188.963C491.701 189.503 490.914 189.818 490.091 189.853C489.266 189.89 488.455 189.647 487.787 189.164C487.461 188.859 487.076 188.627 486.655 188.479C486.171 188.443 485.687 188.543 485.257 188.767C483.888 189.262 482.411 189.368 480.986 189.075C479.561 188.783 478.244 188.103 477.18 187.112L478.517 186.346C475.65 186.493 472.651 186.618 470.057 185.411C467.461 184.203 465.352 181.327 466.105 178.556C466.425 177.35 467.226 176.035 466.565 174.981C466.109 174.25 465.156 174.049 464.315 173.917L453.672 172.203C451.951 171.926 450.128 171.611 448.811 170.467C447.495 169.322 446.986 167.067 448.237 165.857C447.182 164.441 445.742 163.357 444.089 162.734C442.246 162.031 440.218 161.937 438.358 161.326C436.499 160.715 434.623 159.297 434.396 157.365C434.17 155.435 436.56 153.397 438.155 154.598C437.359 151.73 432.131 152.485 431.164 149.674C430.371 147.386 433.17 145.618 434.383 143.532C433.919 142.801 432.991 142.401 432.504 141.655C431.479 140.093 432.933 138.083 434.467 136.991C436.001 135.898 437.866 134.729 437.941 132.861C438.016 130.993 436.074 129.175 436.757 127.386C436.963 126.898 437.346 126.506 437.829 126.288C438.312 126.071 438.86 126.043 439.361 126.211C440.085 122.603 446.838 123.993 448.123 120.544C448.241 120.276 448.265 119.976 448.193 119.692C448.105 119.455 447.952 119.245 447.754 119.089C446.852 118.297 445.633 118.008 444.588 117.462C443.542 116.918 442.529 115.843 442.753 114.674C442.975 113.506 445.057 113.154 445.246 114.333C445.513 114.035 445.843 113.804 446.214 113.653C446.583 113.503 446.982 113.439 447.379 113.465C447.778 113.493 448.165 113.608 448.511 113.807C448.858 114.005 449.154 114.279 449.379 114.608C450.01 113.48 451.571 113.21 452.816 113.658C453.994 114.21 455.028 115.032 455.83 116.058" fill="#211F54"/>
<path d="M478.772 149.605C476.749 145.012 472.407 141.85 467.882 139.677C466.037 138.651 463.966 138.098 461.855 138.068C459.748 138.169 457.581 139.359 456.912 141.361L457.911 144.735C458.596 150.29 463.756 154.014 466.815 158.694C468.14 160.732 469.424 163.253 471.747 163.747C473.021 163.95 474.325 163.668 475.4 162.957C479.756 160.415 480.797 154.235 478.772 149.605Z" fill="#4B3CFB"/>
<path d="M484.46 174.76C485.506 172.348 485.671 169.646 484.928 167.124C484.183 164.603 482.578 162.423 480.39 160.966C481.831 158.002 480.259 154.287 477.674 152.246C475.089 150.205 471.755 149.446 468.539 148.747C465.31 141.735 455.91 138.392 448.973 141.778C443.925 137.016 435.601 137.935 429.516 141.27C428.092 142.193 426.543 142.908 424.918 143.392C423.685 143.563 422.441 143.65 421.196 143.653C414.369 144.23 408.843 150.343 407.635 157.077C407.516 158.169 407.255 159.239 406.858 160.262C406.246 161.557 405.084 162.501 404.168 163.596C403.178 164.797 402.457 166.198 402.057 167.703C401.656 169.208 401.585 170.781 401.848 172.316C402.303 174.911 403.733 177.46 403.15 180.036C402.866 181.323 402.093 182.492 401.94 183.801C401.497 187.604 406.215 190.373 406.299 194.185C406.352 194.945 406.132 195.723 406.086 196.49C405.994 198.105 406.493 199.699 407.49 200.973C408.252 201.943 409.316 202.754 409.651 203.937C409.787 204.863 409.807 205.803 409.709 206.735C409.747 209.022 416.331 216.418 418.491 217.191L475.125 205.189C477.155 204.236 478.839 202.673 479.943 200.719C481.047 198.765 481.515 196.516 481.284 194.284C481.101 193.559 481.124 192.798 481.352 192.087C481.698 191.553 482.149 191.096 482.678 190.743C485.88 187.983 485.219 182.884 483.921 178.851C483.709 178.298 483.59 177.713 483.572 177.12C483.711 176.283 484.013 175.482 484.46 174.76Z" fill="#211F54"/>
<path d="M468.286 178.426C466.24 168.376 457.422 158.266 446.405 155.571C439.418 153.876 434.562 154.934 431.182 155.276C426.461 155.859 422.03 157.863 418.473 161.022C415.52 162.45 406.415 175.432 408.332 186.927C410.46 199.68 413.566 215.168 417.234 224.203C424.609 242.362 439.613 241.404 439.613 241.404L445.193 273.08L479.722 240.499L468.286 178.426Z" fill="#FFBF9D"/>
<path d="M446.494 200.022C446.574 200.739 446.931 201.396 447.487 201.854C448.043 202.313 448.756 202.537 449.475 202.478C449.827 202.463 450.174 202.379 450.494 202.229C450.813 202.078 451.099 201.865 451.336 201.602C451.571 201.339 451.753 201.032 451.869 200.699C451.984 200.365 452.033 200.011 452.01 199.659C451.932 198.941 451.576 198.283 451.019 197.823C450.463 197.365 449.748 197.142 449.03 197.202C448.677 197.217 448.33 197.302 448.011 197.452C447.692 197.603 447.405 197.815 447.169 198.078C446.933 198.341 446.752 198.648 446.635 198.982C446.52 199.315 446.472 199.67 446.494 200.022Z" fill="#211F54"/>
<path d="M418.456 201.983C418.535 202.701 418.893 203.36 419.45 203.818C420.008 204.277 420.723 204.499 421.443 204.438C421.796 204.423 422.142 204.338 422.46 204.187C422.78 204.036 423.066 203.823 423.301 203.561C423.538 203.299 423.719 202.992 423.835 202.659C423.951 202.325 424 201.972 423.978 201.62C423.9 200.902 423.545 200.244 422.988 199.784C422.431 199.326 421.717 199.103 420.998 199.163C420.644 199.177 420.297 199.261 419.977 199.411C419.656 199.561 419.369 199.774 419.133 200.037C418.895 200.299 418.713 200.607 418.597 200.941C418.481 201.275 418.432 201.629 418.456 201.983Z" fill="#211F54"/>
<path d="M412.527 193.48C412.908 193.797 414.805 192.008 417.742 191.657C420.678 191.306 423.037 192.531 423.315 192.131C423.455 191.952 423.034 191.386 422.006 190.771C420.619 190.037 419.04 189.751 417.484 189.95C415.949 190.133 414.51 190.797 413.374 191.849C412.591 192.659 412.341 193.341 412.527 193.48Z" fill="#211F54"/>
<path d="M442.652 191.686C443.068 191.961 444.771 190.01 447.67 189.334C450.568 188.658 453.034 189.654 453.271 189.225C453.387 189.033 452.906 188.487 451.819 188.005C450.358 187.417 448.749 187.298 447.217 187.663C445.704 187.996 444.337 188.806 443.318 189.974C442.61 190.856 442.452 191.562 442.652 191.686Z" fill="#211F54"/>
<path d="M433.796 214.011C433.785 213.844 431.915 213.746 428.892 213.721C428.13 213.735 427.362 213.674 427.206 213.174C427.048 212.673 427.177 211.795 427.441 210.867C427.933 208.955 428.444 206.979 428.981 204.849C431.093 196.304 432.526 189.287 432.185 189.204C431.843 189.121 429.843 195.994 427.732 204.555C427.223 206.66 426.745 208.671 426.285 210.597C426.103 211.488 425.733 212.521 426.251 213.607C426.394 213.859 426.593 214.076 426.831 214.241C427.07 214.405 427.343 214.513 427.63 214.556C428.06 214.625 428.497 214.632 428.929 214.581C431.946 214.4 433.808 214.178 433.796 214.011Z" fill="#211F54"/>
<path d="M435.941 220.993C436.415 220.216 437.081 219.572 437.873 219.125C438.666 218.679 439.561 218.442 440.471 218.439C441.13 218.419 441.788 218.532 442.403 218.773C443.018 219.013 443.577 219.376 444.049 219.837C444.503 220.283 444.809 220.857 444.927 221.482C445.045 222.108 444.967 222.755 444.705 223.334C444.027 224.55 442.412 225.021 440.991 224.777C439.535 224.452 438.158 223.84 436.942 222.976C436.579 222.78 436.255 222.517 435.987 222.204C435.86 222.053 435.78 221.868 435.758 221.673C435.737 221.477 435.774 221.28 435.864 221.105" fill="#FF9A6C"/>
<path d="M442.741 215.012C442.263 215.045 442.64 218.249 440.166 220.857C437.693 223.465 434.247 223.523 434.279 223.979C434.294 224.184 435.118 224.508 436.596 224.375C438.48 224.174 440.233 223.316 441.548 221.951C442.807 220.638 443.506 218.886 443.496 217.066C443.416 215.713 442.96 214.966 442.741 215.012Z" fill="#211F54"/>
<path d="M439.003 180.313C439.467 181.044 442.279 180.008 445.779 179.648C449.28 179.289 452.248 179.6 452.542 178.793C452.668 178.402 452.02 177.768 450.733 177.255C449.038 176.654 447.229 176.447 445.443 176.648C443.656 176.85 441.939 177.456 440.421 178.419C439.284 179.201 438.796 179.969 439.003 180.313Z" fill="#211F54"/>
<path d="M412.058 180.671C412.658 181.279 414.615 180.34 417.056 180.009C419.498 179.678 421.629 179.917 422.026 179.157C422.191 178.787 421.788 178.158 420.805 177.632C419.503 176.994 418.034 176.778 416.603 177.017C415.168 177.22 413.83 177.86 412.771 178.85C411.996 179.676 411.795 180.4 412.058 180.671Z" fill="#211F54"/>
<path d="M439.627 241.388C448.56 239.454 456.781 235.078 463.377 228.748C463.377 228.748 459.746 243.608 440.462 246.232L439.627 241.388Z" fill="#894943"/>
<path d="M469.403 197.022C469.075 195.618 469.931 191.931 471.298 191.393C474.868 189.952 481.611 188.694 483.854 198.088C486.927 210.929 473.411 211.363 473.31 211.004C473.208 210.644 470.511 201.854 469.403 197.022Z" fill="#FFBF9D"/>
<path d="M475.683 205.448C475.733 205.391 475.942 205.544 476.368 205.629C476.952 205.731 477.554 205.601 478.045 205.267C479.282 204.417 479.909 202.014 479.418 199.69C479.186 198.579 478.709 197.534 478.021 196.633C477.805 196.261 477.502 195.948 477.137 195.719C476.774 195.491 476.358 195.354 475.93 195.321C475.657 195.315 475.39 195.403 475.176 195.574C474.961 195.744 474.814 195.984 474.758 196.251C474.672 196.647 474.803 196.889 474.752 196.924C474.701 196.957 474.429 196.778 474.403 196.184C474.394 195.848 474.504 195.519 474.712 195.254C475.001 194.904 475.415 194.681 475.866 194.632C476.419 194.609 476.968 194.728 477.461 194.979C477.954 195.229 478.375 195.601 478.683 196.06C479.494 197.043 480.053 198.21 480.309 199.459C480.851 202.062 480.104 204.818 478.378 205.786C478.057 205.966 477.7 206.073 477.332 206.098C476.964 206.125 476.596 206.068 476.252 205.934C475.78 205.739 475.648 205.48 475.683 205.448Z" fill="#894943"/>
<path d="M405.52 187.75C407.737 185.518 408.884 182.934 408.026 179.939C409.866 180.055 411.103 177.434 411.761 175.708C412.418 173.983 413.475 172.947 412.97 171.172C412.847 170.827 412.82 170.453 412.894 170.094C413.039 169.542 413.597 169.235 414.104 168.948C415.371 168.186 416.427 167.117 417.177 165.842C417.926 164.567 418.344 163.125 418.393 161.646C421.434 162.207 424.567 162.006 427.511 161.062C428.405 161.875 429.492 162.447 430.668 162.726C431.844 163.006 433.072 162.982 434.236 162.658C435.401 162.334 436.465 161.72 437.328 160.874C438.191 160.027 438.826 158.976 439.174 157.819C439.791 158.499 440.548 159.039 441.392 159.403C442.236 159.767 443.149 159.945 444.068 159.926C445.903 159.877 447.722 159.56 449.466 158.984C449.547 160.801 450.277 162.528 451.522 163.855C452.767 165.181 454.444 166.017 456.252 166.213C456.497 166.19 456.744 166.216 456.978 166.291C457.213 166.365 457.43 166.485 457.617 166.644C457.845 167.103 457.882 167.633 457.72 168.118C457.649 168.914 457.738 169.716 457.983 170.476C458.228 171.238 458.623 171.941 459.145 172.545C459.667 173.15 460.306 173.643 461.023 173.996C461.74 174.348 462.52 174.554 463.317 174.598C462.929 175.144 462.669 175.772 462.559 176.433C462.447 177.095 462.487 177.773 462.675 178.416C462.863 179.059 463.195 179.652 463.645 180.15C464.095 180.647 464.651 181.036 465.273 181.287C465.811 181.463 466.497 181.659 466.551 182.221C466.553 182.435 466.499 182.647 466.396 182.835C465.738 184.331 465.087 185.941 465.352 187.557C465.618 189.172 467.098 190.703 468.693 190.377C468.323 190.816 468.044 191.326 467.876 191.876C467.707 192.426 467.651 193.004 467.711 193.576C467.95 194.697 469.377 195.575 470.293 194.923C470.701 194.65 476.805 191.901 477.004 191.461C479.491 185.674 473.659 181.28 471.879 175.236C469.974 169.192 466.693 163.671 462.296 159.11C460.531 157.14 458.513 155.412 456.297 153.971C453.68 152.476 450.904 151.279 448.019 150.405C444.305 149.137 440.493 147.877 436.571 147.876C429.258 147.846 422.629 152.044 416.853 156.532C414.592 158.173 412.564 160.113 410.823 162.298C408.93 165.047 407.543 168.113 406.725 171.35C405.376 175.972 404.494 180.82 405.117 185.595" fill="#211F54"/>
<path d="M401.958 183.838C402 183.304 402.125 182.779 402.33 182.284C402.503 181.792 402.774 181.207 402.968 180.484C403.206 179.649 403.263 178.772 403.131 177.915C402.96 176.838 402.697 175.779 402.346 174.748C401.915 173.506 401.652 172.212 401.566 170.901C401.51 169.383 401.769 167.871 402.323 166.457C402.624 165.688 403.013 164.956 403.484 164.277C403.991 163.572 404.555 162.91 405.169 162.296C405.803 161.672 406.333 160.948 406.736 160.156C407.073 159.289 407.294 158.383 407.396 157.46C408.079 153.288 410.235 149.499 413.471 146.782C414.344 146.054 415.292 145.424 416.301 144.904C417.345 144.379 418.451 143.988 419.593 143.742C420.174 143.62 420.762 143.534 421.353 143.482C421.953 143.44 422.545 143.399 423.13 143.358C424.319 143.342 425.492 143.076 426.571 142.574C427.672 142.077 428.702 141.402 429.821 140.82C430.944 140.23 432.114 139.735 433.319 139.338C434.542 138.93 435.797 138.629 437.072 138.434C438.374 138.247 439.691 138.188 441.005 138.259C443.72 138.381 446.327 139.355 448.457 141.044L449.082 141.564L448.858 141.535C452.449 139.948 456.513 139.804 460.208 141.132C463.903 142.459 466.947 145.156 468.71 148.666L468.58 148.561C470.291 148.9 471.979 149.348 473.634 149.902C475.251 150.437 476.755 151.267 478.071 152.347C479.323 153.428 480.256 154.831 480.766 156.404C481.278 157.91 481.198 159.554 480.538 161.001L480.477 160.792C482.614 162.184 484.197 164.28 484.952 166.716C485.68 168.884 485.727 171.223 485.084 173.418C484.932 173.92 484.745 174.41 484.523 174.885C484.303 175.351 484.067 175.788 483.9 176.242C483.733 176.675 483.677 177.144 483.736 177.604C483.81 178.056 483.925 178.501 484.08 178.932C484.595 180.528 484.927 182.178 485.065 183.848C485.189 185.198 485.05 186.56 484.651 187.856C484.348 188.81 483.83 189.683 483.135 190.404C482.574 190.994 482.023 191.3 481.754 191.608C481.611 191.763 481.481 191.93 481.369 192.108C481.446 191.911 481.563 191.731 481.714 191.581C481.981 191.248 482.522 190.92 483.062 190.334C483.73 189.614 484.228 188.752 484.519 187.812C484.888 186.53 485.009 185.19 484.875 183.862C484.727 182.207 484.385 180.576 483.856 179.002C483.7 178.557 483.578 178.101 483.495 177.637C483.432 177.138 483.49 176.631 483.666 176.159C483.851 175.686 484.061 175.223 484.294 174.771C484.507 174.307 484.686 173.828 484.827 173.337C485.441 171.197 485.386 168.92 484.668 166.813C483.923 164.449 482.378 162.419 480.299 161.071L480.171 160.997L480.239 160.862C480.866 159.479 480.937 157.907 480.435 156.473C479.939 154.964 479.04 153.621 477.836 152.586C476.549 151.541 475.084 150.739 473.511 150.216C471.868 149.676 470.193 149.234 468.496 148.895L468.405 148.901L468.399 148.81C466.661 145.415 463.691 142.813 460.097 141.538C456.504 140.261 452.558 140.407 449.07 141.947L448.951 142.001L448.846 141.917L448.246 141.409C446.176 139.777 443.647 138.836 441.014 138.716C439.728 138.644 438.439 138.699 437.164 138.879C435.909 139.07 434.67 139.366 433.463 139.763C432.28 140.155 431.13 140.642 430.024 141.218C428.926 141.776 427.883 142.46 426.75 142.974C426.19 143.238 425.604 143.44 425 143.577C424.399 143.7 423.789 143.771 423.175 143.79C422.576 143.831 421.988 143.826 421.402 143.867C420.826 143.919 420.254 144.005 419.689 144.125C418.58 144.366 417.503 144.741 416.485 145.243C415.501 145.751 414.575 146.364 413.72 147.07C410.538 149.729 408.41 153.439 407.72 157.529C407.613 158.48 407.381 159.413 407.03 160.303C406.606 161.121 406.055 161.865 405.398 162.509C404.79 163.11 404.233 163.758 403.733 164.45C403.267 165.112 402.881 165.825 402.584 166.577C402.032 167.954 401.768 169.43 401.811 170.914C401.888 172.196 402.136 173.463 402.547 174.68C402.894 175.725 403.15 176.798 403.313 177.886C403.434 178.767 403.362 179.663 403.1 180.512C402.869 181.239 402.589 181.823 402.408 182.302C402.259 182.664 402.137 183.038 402.043 183.419C402.018 183.703 401.967 183.837 401.958 183.838Z" fill="#4A4566"/>
<path d="M442.294 140.336C442.294 140.336 441.913 140.218 441.213 140.053C440.235 139.827 439.224 139.769 438.226 139.881C436.757 140.039 435.358 140.584 434.17 141.462C432.716 142.559 431.646 144.087 431.117 145.829C430.959 146.351 430.859 146.888 430.817 147.43C430.78 147.669 430.797 147.913 430.866 148.144C430.935 148.376 431.055 148.589 431.215 148.77L431.63 149.129L431.079 149.1C429.642 149.037 428.238 149.54 427.17 150.503C426.327 151.26 425.753 152.27 425.532 153.381C425.383 154.119 425.376 154.879 425.513 155.62C425.586 155.885 425.645 156.153 425.691 156.424C425.65 156.365 425.614 156.3 425.587 156.233C425.507 156.044 425.439 155.849 425.386 155.652C425.197 154.905 425.163 154.128 425.287 153.368C425.486 152.185 426.067 151.102 426.941 150.283C428.057 149.25 429.535 148.702 431.055 148.757L430.918 149.096C430.712 148.879 430.556 148.619 430.462 148.336C430.368 148.052 430.339 147.75 430.375 147.453C430.421 146.879 430.527 146.312 430.692 145.76C431.245 143.935 432.373 142.337 433.907 141.205C434.954 140.452 436.158 139.945 437.429 139.724C438.7 139.502 440.003 139.573 441.243 139.929C441.51 140.009 441.772 140.105 442.027 140.217C442.213 140.273 442.301 140.32 442.294 140.336Z" fill="#4A4566"/>
<path d="M466.549 150.314C466.467 150.52 466.352 150.712 466.208 150.88C465.849 151.373 465.438 151.824 464.981 152.225C464.293 152.846 463.479 153.308 462.595 153.584C461.467 153.94 460.246 153.856 459.175 153.349L459.451 153.246C459.373 153.443 459.28 153.648 459.196 153.859C459.111 154.072 458.98 154.264 458.871 154.463C458.199 155.593 457.251 156.536 456.118 157.206C455.207 157.76 454.195 158.129 453.141 158.292C452.435 158.397 451.718 158.398 451.013 158.296C450.744 158.269 450.481 158.2 450.235 158.09C451.181 158.183 452.136 158.158 453.076 158.013C454.081 157.817 455.039 157.438 455.906 156.892C456.97 156.237 457.861 155.336 458.507 154.266C458.615 154.068 458.724 153.884 458.818 153.688C458.91 153.49 458.982 153.302 459.06 153.113L459.145 152.909L459.334 153.002C460.315 153.457 461.428 153.536 462.464 153.226C463.313 152.984 464.103 152.568 464.782 152.003C465.975 151.056 466.493 150.272 466.549 150.314Z" fill="#4A4566"/>
<path d="M476.081 160.672C476.081 160.672 476.086 160.755 476.098 160.922C476.086 161.155 476.037 161.386 475.954 161.604C475.622 162.42 474.996 163.082 474.2 163.46C473.008 163.971 471.693 164.126 470.415 163.908C469.707 163.821 468.977 163.742 468.202 163.575C467.366 163.434 466.606 163.003 466.056 162.358L465.928 162.168L466.251 162.192C465.322 163.411 464.213 164.479 462.962 165.361C461.922 166.085 460.701 166.501 459.436 166.562C458.589 166.614 457.741 166.441 456.982 166.062C456.775 165.963 456.582 165.838 456.406 165.69C456.285 165.592 456.227 165.534 456.235 165.526C456.242 165.518 456.513 165.697 457.025 165.921C457.777 166.232 458.592 166.358 459.401 166.29C460.604 166.186 461.757 165.762 462.742 165.063C463.945 164.182 465.015 163.133 465.921 161.947L466.089 161.737L466.251 161.97L466.353 162.124C466.851 162.691 467.529 163.07 468.275 163.195C468.988 163.347 469.71 163.463 470.435 163.54C471.643 163.769 472.891 163.655 474.037 163.212C474.792 162.883 475.407 162.299 475.777 161.563C475.907 161.277 476.009 160.979 476.081 160.672Z" fill="#4A4566"/>
<path d="M479.311 111.582C479.311 111.582 479.094 111.643 478.726 111.829C478.203 112.117 477.778 112.554 477.501 113.083C477.07 113.908 476.929 114.853 477.1 115.768C477.358 116.958 477.79 118.104 478.384 119.168L478.481 119.359L478.268 119.374C476.666 119.694 475.213 120.531 474.13 121.755C473.517 122.431 473.071 123.243 472.827 124.123C472.584 125.002 472.55 125.928 472.73 126.823C472.877 127.642 473.212 128.416 473.707 129.085C474.203 129.753 474.845 130.299 475.587 130.678L476.091 130.917L475.542 131.04C474.632 131.255 473.776 131.654 473.028 132.216C472.279 132.776 471.654 133.486 471.192 134.299C470.454 135.612 470.191 137.141 470.449 138.627C470.618 139.605 470.987 140.538 471.534 141.367C471.925 141.951 472.203 142.222 472.174 142.239C472.144 142.257 472.094 142.183 471.963 142.055C471.766 141.87 471.588 141.665 471.432 141.443C470.665 140.399 470.211 139.159 470.121 137.866C470.03 136.574 470.308 135.283 470.921 134.142C471.401 133.273 472.058 132.514 472.85 131.914C473.642 131.315 474.55 130.887 475.516 130.66L475.473 131.021C474.675 130.619 473.981 130.036 473.447 129.32C472.912 128.603 472.55 127.773 472.392 126.893C472.184 125.918 472.227 124.907 472.514 123.952C472.787 123.048 473.248 122.211 473.869 121.498C475.013 120.222 476.545 119.358 478.23 119.04L478.109 119.278C477.507 118.185 477.082 117.004 476.849 115.778C476.693 114.807 476.87 113.811 477.354 112.955C477.659 112.407 478.132 111.97 478.702 111.708C478.848 111.638 479.004 111.589 479.164 111.561C479.215 111.561 479.264 111.568 479.311 111.582Z" fill="#4A4566"/>
<path d="M508.661 134.182C508.661 134.182 508.605 134.254 508.482 134.355C508.301 134.514 508.109 134.662 507.91 134.8C507.154 135.311 506.325 135.708 505.451 135.979C504.113 136.408 502.7 136.559 501.301 136.422C499.501 136.272 497.777 135.636 496.311 134.58L496.595 134.492C496.228 135.683 495.601 136.776 494.757 137.694C493.914 138.612 492.878 139.329 491.722 139.796C490.473 140.267 489.108 140.334 487.818 139.987C486.529 139.641 485.381 138.898 484.536 137.862L484.865 137.771C484.746 138.694 484.385 139.57 483.821 140.31C483.308 140.963 482.687 141.523 481.984 141.966C480.816 142.666 479.513 143.114 478.161 143.279C477.293 143.4 476.417 143.461 475.541 143.462C475.229 143.477 474.917 143.466 474.608 143.428C474.917 143.38 475.229 143.359 475.541 143.363C476.41 143.318 477.274 143.224 478.132 143.082C479.453 142.896 480.72 142.436 481.853 141.73C482.566 141.3 483.175 140.718 483.639 140.026C484.102 139.334 484.407 138.549 484.534 137.726L484.586 137.263L484.863 137.633C485.661 138.601 486.741 139.296 487.953 139.622C489.164 139.948 490.447 139.888 491.622 139.451C492.722 139.004 493.709 138.321 494.514 137.448C495.32 136.576 495.924 135.538 496.284 134.407L496.366 134.164L496.574 134.31C497.982 135.338 499.639 135.971 501.373 136.142C502.733 136.289 504.109 136.17 505.423 135.79C506.578 135.423 507.671 134.881 508.661 134.182Z" fill="#4A4566"/>
<path d="M499.502 156.109C499.502 156.109 499.509 156.208 499.406 156.375C499.243 156.601 499.016 156.771 498.753 156.864C497.802 157.177 496.786 157.249 495.799 157.071C494.327 156.833 492.966 156.142 491.906 155.09C490.607 153.785 489.847 152.035 489.778 150.193L489.775 150.147L490.106 150.299C488.681 151.439 486.931 152.096 485.109 152.176C483.639 152.246 482.171 151.978 480.819 151.393C479.913 151.004 479.064 150.49 478.301 149.866C478.013 149.664 477.752 149.426 477.526 149.157C478.575 149.959 479.716 150.633 480.925 151.164C482.248 151.695 483.671 151.926 485.094 151.842C486.833 151.731 488.495 151.082 489.848 149.982L490.15 149.732L490.182 150.172C490.249 151.914 490.958 153.569 492.17 154.82C493.169 155.837 494.456 156.522 495.856 156.784C496.798 156.984 497.773 156.968 498.707 156.738C499.041 156.636 499.325 156.411 499.502 156.109Z" fill="#4A4566"/>
<path d="M451.307 118.512C451.166 119.881 451.279 121.266 451.639 122.596C452.082 124.189 452.962 125.626 454.178 126.746C455.395 127.865 456.899 128.623 458.522 128.932C459.547 129.14 460.6 129.171 461.634 129.021L461.886 129.003L461.902 129.246C461.794 130.683 461.958 132.126 462.383 133.502C462.728 134.6 463.227 135.643 463.866 136.599C464.104 136.96 464.368 137.304 464.656 137.627C464.751 137.743 464.872 137.837 465.009 137.901C465.145 137.965 465.294 137.999 465.444 137.999C465.54 137.992 465.633 137.963 465.715 137.915C465.797 137.866 465.868 137.8 465.922 137.721C465.997 137.61 465.992 137.526 466.008 137.532C466.023 137.539 466.013 137.616 465.985 137.755C465.933 137.853 465.86 137.938 465.77 138.002C465.681 138.066 465.578 138.109 465.469 138.127C465.291 138.149 465.111 138.127 464.943 138.065C464.776 138.002 464.625 137.9 464.506 137.768C464.199 137.45 463.919 137.106 463.671 136.742C462.983 135.784 462.444 134.727 462.07 133.609C461.607 132.191 461.422 130.699 461.526 129.211L461.747 129.417C460.665 129.586 459.562 129.56 458.49 129.339C456.8 129.021 455.237 128.227 453.983 127.049C452.729 125.873 451.836 124.362 451.409 122.696C451.152 121.707 451.062 120.68 451.144 119.661C451.172 119.383 451.216 119.107 451.277 118.834C451.268 118.606 451.292 118.513 451.307 118.512Z" fill="#4A4566"/>
<path d="M481.255 211.899C481.313 212.74 481.12 213.58 480.7 214.311C480.281 215.042 479.654 215.633 478.899 216.008C478.144 216.384 477.295 216.527 476.459 216.419C475.623 216.312 474.838 215.959 474.202 215.405C473.567 214.852 473.11 214.121 472.889 213.307C472.667 212.494 472.692 211.633 472.96 210.834C473.227 210.034 473.727 209.332 474.393 208.816C475.06 208.3 475.864 207.993 476.705 207.934C477.263 207.895 477.825 207.967 478.357 208.144C478.888 208.323 479.38 208.604 479.802 208.973C480.225 209.341 480.571 209.789 480.82 210.291C481.069 210.793 481.217 211.339 481.255 211.899Z" fill="#4B3CFB"/>
<path d="M513.653 325.516C513.586 325.545 513.515 325.562 513.443 325.567L512.83 325.681L510.439 326.07C508.366 326.4 505.366 326.853 501.652 327.398C494.224 328.475 483.941 330.93 472.555 332.218C461.17 333.507 450.844 333.357 443.362 333.988C439.625 334.292 436.595 334.519 434.501 334.658L432.088 334.827L431.463 334.87C431.393 334.886 431.321 334.891 431.25 334.885C431.32 334.871 431.392 334.866 431.463 334.87L432.088 334.827L434.497 334.601L443.35 333.81C450.82 333.131 461.142 333.225 472.522 331.936C483.9 330.648 494.185 328.234 501.619 327.229L510.428 326.021L512.824 325.703L513.449 325.659L513.653 325.516Z" fill="white"/>
<g opacity="0.3">
<path opacity="0.3" d="M500.167 269.433L511.856 315.56L517.609 316.536L520.351 336.291L469.609 412.085H492.719L497.722 398.511L539.406 370.677V364.135L523.419 306.68L515.786 310.64L500.167 269.433Z" fill="black"/>
</g>
<path d="M420.187 263.18C410.719 271.686 406.4 280.698 401.767 291.021C393.38 310.294 391.35 317.548 391.35 317.548L427.304 334.789L425.004 321.823L420.187 263.18Z" fill="#0075FF"/>
<path d="M386.728 265.85L376.519 326.596L401.926 341.029L406.473 265.483L386.728 265.85Z" fill="#FFBF9D"/>
<path d="M376.519 326.596C376.519 326.596 372.238 349.038 390.451 356.551C403.978 362.139 419.169 349.926 423.057 332.554L403.201 323.323L376.519 326.596Z" fill="#FFBF9D"/>
<path d="M403.066 318.703C403.317 319.924 403.44 321.168 403.433 322.415C403.655 328.436 403.059 334.46 401.66 340.32C401.425 341.546 401.06 342.744 400.571 343.893C400.707 342.656 400.918 341.429 401.204 340.218C401.635 337.963 402.155 334.846 402.471 331.349C402.787 327.851 402.926 324.709 402.939 322.479C402.892 321.218 402.934 319.957 403.066 318.703Z" fill="#FF9A6C"/>
<path d="M406.46 265.838C406.587 265.356 412.122 244.994 412.122 244.994L409.019 225.024C409.019 225.024 408.436 219.119 405.219 220.26C402.002 221.399 403.041 227.862 403.041 227.862L391.718 239.989L388.805 238.164C386.866 240.239 385.719 242.931 385.563 245.767C385.563 249.973 386.677 265.876 386.677 265.876" fill="#FFBF9D"/>
<path d="M386.726 265.838C386.683 265.668 386.658 265.493 386.651 265.319L386.523 263.785C386.423 262.378 386.283 260.414 386.119 257.969C385.954 255.523 385.763 252.406 385.549 248.947C385.549 248.073 385.434 247.173 385.384 246.261C385.306 245.287 385.391 244.306 385.637 243.358C386.195 241.336 387.224 239.473 388.639 237.923L388.804 237.745L389.006 237.873L391.931 239.697H391.552L402.85 227.558L402.761 227.824C402.546 226.37 402.546 224.893 402.761 223.44C402.876 222.673 403.133 221.932 403.52 221.261C403.945 220.56 404.62 220.048 405.407 219.829C405.809 219.72 406.232 219.726 406.63 219.845C407.028 219.963 407.386 220.19 407.662 220.501C408.165 221.064 408.541 221.73 408.764 222.452C409.147 223.807 409.414 225.194 409.562 226.595C409.778 227.938 409.98 229.269 410.182 230.561C410.968 235.769 411.703 240.597 412.361 244.892V245.006L408.131 260.212C407.625 261.969 407.202 263.363 406.865 264.393C406.737 264.837 406.624 265.191 406.535 265.483C406.503 265.607 406.456 265.725 406.396 265.838C406.395 265.709 406.416 265.579 406.459 265.457C406.459 265.166 406.611 264.799 406.712 264.356C406.978 263.316 407.333 261.91 407.789 260.135C408.764 256.436 410.132 251.265 411.804 244.93V245.044C411.12 240.749 410.36 235.921 409.537 230.713C409.334 229.446 409.119 228.077 408.903 226.734C408.765 225.379 408.502 224.038 408.119 222.73C407.922 222.098 407.599 221.511 407.168 221.007C406.969 220.781 406.709 220.617 406.42 220.534C406.131 220.451 405.824 220.452 405.535 220.538C404.915 220.787 404.382 221.21 404 221.757C403.617 222.304 403.402 222.95 403.381 223.617C403.172 224.999 403.172 226.404 403.381 227.786V227.95L403.281 228.065L391.944 240.166L391.767 240.356L391.565 240.216L388.651 238.392H389.006C387.653 239.868 386.66 241.637 386.106 243.561C385.793 245.357 385.75 247.189 385.979 248.998C386.144 252.457 386.295 255.485 386.41 258.007C386.523 260.529 386.599 262.429 386.651 263.836C386.651 264.469 386.651 264.976 386.651 265.382C386.693 265.53 386.718 265.683 386.726 265.838Z" fill="#FF9A6C"/>
<path d="M390.769 242.877C391.358 243.107 391.958 243.306 392.568 243.473C392.568 243.473 391.946 249.086 393.643 249.302C397.848 249.846 397.735 244.321 397.735 244.321C397.735 244.321 398.418 247.807 400.584 247.781C402.75 247.755 404.156 247.21 403.751 243.245L403.028 236.048C402.91 235.306 402.516 234.637 401.927 234.172L399.951 232.778L404.764 233.881C404.764 233.881 406.867 237.682 409.058 236.592C409.528 236.325 409.885 235.898 410.067 235.388C410.248 234.88 410.24 234.321 410.046 233.818C409.549 232.232 408.837 230.723 407.931 229.332C406.664 227.875 399.913 225.023 398.418 225.67C396.924 226.315 396.037 230.611 396.037 230.611C396.037 230.611 392.643 231.118 391.756 235.68C390.194 236.533 388.883 237.783 387.957 239.303" fill="#FFBF9D"/>
<path d="M387.968 239.355C387.968 239.355 387.968 239.24 388.121 239.037C388.293 238.737 388.488 238.449 388.703 238.176C389.516 237.119 390.532 236.236 391.692 235.579L391.604 235.693C391.776 234.611 392.178 233.578 392.781 232.664C393.527 231.525 394.677 230.709 395.998 230.384L395.808 230.573C396.016 229.583 396.308 228.613 396.683 227.672C396.88 227.159 397.135 226.67 397.443 226.214C397.614 225.96 397.834 225.74 398.088 225.569C398.362 225.389 398.685 225.3 399.012 225.315C400.202 225.4 401.373 225.665 402.483 226.101C403.651 226.517 404.789 227.012 405.89 227.583C406.476 227.878 407.035 228.221 407.562 228.609C408.107 229.036 408.542 229.588 408.829 230.219C409.464 231.437 409.989 232.71 410.399 234.021C410.491 234.406 410.496 234.808 410.412 235.196C410.329 235.584 410.16 235.949 409.918 236.263C409.662 236.587 409.323 236.834 408.936 236.977C408.55 237.12 408.132 237.154 407.727 237.074C406.97 236.845 406.293 236.406 405.777 235.807C405.255 235.261 404.804 234.652 404.434 233.995L404.649 234.159L403.8 233.969L399.836 233.058L400.102 232.461L402.078 233.868C402.462 234.238 402.787 234.666 403.04 235.135C403.159 235.387 403.236 235.657 403.268 235.934V236.669C403.37 237.632 403.458 238.582 403.547 239.519C403.636 240.457 403.737 241.382 403.825 242.282C403.938 243.189 403.98 244.105 403.953 245.018C403.975 245.505 403.88 245.99 403.675 246.43C403.469 246.872 403.161 247.257 402.774 247.553C401.991 247.944 401.112 248.102 400.241 248.009C399.81 247.941 399.401 247.771 399.049 247.513C398.697 247.256 398.411 246.917 398.214 246.527C397.821 245.85 397.538 245.114 397.379 244.348H397.885C397.953 245.949 397.4 247.515 396.34 248.719C395.808 249.215 395.117 249.508 394.39 249.542C394.058 249.586 393.721 249.586 393.389 249.542C393.237 249.452 393.106 249.331 393.003 249.187C392.901 249.043 392.83 248.879 392.794 248.707C392.445 247.715 392.299 246.664 392.364 245.615C392.372 244.878 392.423 244.141 392.515 243.41L392.592 243.511L391.236 243.017C391.09 242.97 390.949 242.907 390.818 242.826C390.975 242.837 391.129 242.872 391.275 242.928L392.63 243.333H392.706V243.41C392.669 244.135 392.669 244.863 392.706 245.589C392.677 246.587 392.84 247.581 393.187 248.516C393.326 248.732 393.478 248.973 393.706 249.01C393.992 249.043 394.281 249.043 394.567 249.01C395.2 248.969 395.797 248.704 396.252 248.263C397.201 247.137 397.681 245.69 397.594 244.221V242.079L398.076 244.17C398.23 244.87 398.495 245.542 398.861 246.159C399.012 246.483 399.237 246.767 399.519 246.988C399.801 247.207 400.131 247.358 400.482 247.426C401.249 247.501 402.02 247.361 402.711 247.021C403.008 246.774 403.244 246.461 403.399 246.107C403.552 245.752 403.62 245.366 403.597 244.981C403.615 244.1 403.564 243.219 403.446 242.345C403.358 241.445 403.256 240.521 403.167 239.583L402.876 236.732L402.799 236.01C402.779 235.803 402.724 235.602 402.635 235.414C402.403 235.014 402.113 234.651 401.774 234.337L399.798 232.943L398.443 231.98L400.064 232.348L404.028 233.259L404.864 233.45H405.004L405.08 233.577C405.677 234.795 406.692 235.758 407.942 236.288C408.227 236.347 408.523 236.325 408.796 236.224C409.069 236.123 409.308 235.948 409.487 235.718C409.669 235.48 409.795 235.203 409.857 234.909C409.918 234.616 409.913 234.312 409.842 234.021C409.452 232.762 408.953 231.54 408.347 230.37C408.099 229.813 407.715 229.325 407.233 228.952C406.729 228.588 406.2 228.262 405.649 227.977C404.572 227.415 403.46 226.924 402.319 226.506C401.279 226.084 400.181 225.819 399.064 225.72C398.829 225.713 398.597 225.771 398.394 225.886C398.19 226.003 398.023 226.173 397.911 226.38C397.614 226.795 397.371 227.246 397.189 227.722C396.817 228.63 396.521 229.567 396.302 230.523V230.675H396.151C394.941 230.963 393.883 231.696 393.187 232.727C392.593 233.59 392.183 234.564 391.983 235.591V235.668C390.843 236.277 389.825 237.094 388.982 238.074C388.247 238.962 388.006 239.38 387.968 239.355Z" fill="#FF9A6C"/>
<path d="M391.439 236.035C391.439 235.947 392.098 235.845 393.124 236.035C394.475 236.384 395.672 237.169 396.531 238.269C397.39 239.369 397.862 240.722 397.874 242.117C397.874 243.182 397.62 243.789 397.543 243.764C397.461 243.228 397.415 242.686 397.405 242.143C397.253 240.887 396.773 239.694 396.012 238.683C395.221 237.69 394.175 236.932 392.984 236.491C392.46 236.371 391.944 236.219 391.439 236.035Z" fill="#FF9A6C"/>
<path d="M556.901 703.044C548.159 702.909 539.486 701.479 531.163 698.802C513.212 693.301 499.982 680.885 491.841 661.922C484.972 645.915 483.007 627.984 482.131 615.909C480.166 589.041 496.788 506.402 500.138 491.243C502.711 479.633 504.293 449.768 492.774 431.639C490.814 428.311 488.183 425.427 485.049 423.17C481.914 420.913 478.346 419.333 474.569 418.531C445.268 412.394 416.222 449.061 413.791 452.171L349.847 568.268L342.285 563.856L406.511 447.237L406.682 447.01C408.095 445.186 440.448 402.353 476.279 409.834C486.173 411.913 494.23 417.626 500.068 426.803C512.618 446.601 511.969 477.993 508.548 493.166C503.402 516.442 489.014 591.699 490.725 615.23C492.703 642.409 499.304 679.768 533.58 690.275C569.383 701.234 583.602 687.447 594.132 673.589C605.891 658.133 613.157 650.341 622.654 647.824C637.171 643.992 646.457 649.748 652.266 654.966L646.4 663.026C646.131 662.588 636.647 653.311 624.86 656.422C617.792 658.274 611.332 665.486 601.028 679.047C591.7 691.363 579.135 703.044 556.901 703.044Z" fill="#4A4566"/>
<path d="M289.272 677.177L281.045 672.425L343.69 562.127L351.901 566.878L289.272 677.177Z" fill="#DCDDEB"/>
<path d="M230.497 683.387C230.497 683.387 226.129 683.755 224.673 685.042C223.217 686.329 210.836 711.188 210.836 711.188V719.107H245.295L253.48 696.821L254.116 687.488C254.152 686.966 254.082 686.442 253.908 685.948C253.735 685.455 253.463 685.002 253.107 684.618C252.753 684.233 252.323 683.926 251.845 683.715C251.366 683.503 250.85 683.391 250.328 683.387H230.497Z" fill="#0075FF"/>
<path d="M286.893 655.515L277.084 675.114L263.67 682.184L270.978 694.092L282.044 687.84C285.198 686.037 287.78 683.381 289.494 680.176L299.006 662.388L286.893 655.515Z" fill="#4A4566"/>
<path d="M226.539 692.691H250.426V706.055H265.084C265.084 706.055 269.112 705.206 270.087 702.392C270.751 699.679 271.092 696.898 271.105 694.105L263.67 682.184L255.43 686.426H235.26C233.745 686.425 232.256 686.814 230.936 687.558C229.617 688.301 228.511 689.372 227.726 690.67L226.539 692.691Z" fill="#1D53BB"/>
<path d="M226.539 692.691V692.578C226.6 692.445 226.671 692.318 226.752 692.196L227.599 690.697C228.065 689.899 228.651 689.179 229.338 688.562C230.27 687.717 231.374 687.086 232.575 686.709C233.273 686.475 234.001 686.336 234.738 686.299C235.501 686.299 236.292 686.299 237.126 686.299H242.511H255.388L263.685 682.057L263.812 681.987V682.114L271.119 694.006C271.1 695.989 270.943 697.969 270.653 699.932C270.547 700.688 270.381 701.435 270.158 702.166C269.917 702.908 269.494 703.579 268.929 704.117C267.844 705.131 266.521 705.855 265.084 706.224H250.271V706.068C250.271 701.246 250.271 696.764 250.271 692.705L250.398 692.847L232.928 692.762H228.165H232.985L250.341 692.677H250.469V692.805C250.469 696.863 250.469 701.289 250.469 706.167L250.313 706.012H264.872C266.276 705.699 267.579 705.038 268.66 704.089C269.645 702.992 270.219 701.588 270.285 700.115C270.569 698.161 270.724 696.192 270.752 694.219V694.318L263.444 682.41H263.642L255.359 686.582H242.483H237.168C236.348 686.582 235.543 686.582 234.78 686.582C234.06 686.626 233.349 686.754 232.659 686.964C231.487 687.326 230.406 687.939 229.494 688.76C228.809 689.359 228.222 690.06 227.755 690.839L226.864 692.253L226.624 692.634L226.539 692.691Z" fill="#263238"/>
<path d="M795.348 630.173C789.496 621.194 782.727 616.202 763.744 614.01H758.783C722.161 615.227 689.694 622.494 659.008 642.546C651.121 647.68 643.107 654.807 642.626 664.196C642.104 674.094 650.175 682.297 658.641 687.387C675.446 697.498 695.39 700.538 714.881 703.169C728.86 705.049 743.15 706.831 757.044 704.583C770.938 702.334 784.832 695.602 792.465 683.725C797.836 675.381 799.716 665.229 800.026 655.302C800.309 646.676 800.055 637.385 795.348 630.173Z" fill="#0075FF"/>
<path d="M770.26 645.644C770.146 645.589 770.04 645.517 769.949 645.431L769.101 644.78C767.968 643.987 766.761 643.304 765.497 642.745C762.218 641.259 757.016 640.383 750.556 640.454C737.666 640.61 719.687 641.175 700.549 645.983C691.542 648.12 682.73 651.005 674.203 654.609C670.491 656.186 666.92 658.079 663.531 660.265C662.006 661.255 660.585 662.396 659.291 663.673C658.162 664.885 657.209 666.252 656.464 667.732C655.827 669.085 655.353 670.508 655.051 671.974C654.803 673.307 654.704 674.663 654.753 676.018C654.872 678.198 655.349 680.343 656.167 682.367C656.905 684.077 657.775 685.727 658.768 687.302C658.768 687.302 658.683 687.217 658.528 687.019C658.372 686.822 658.161 686.496 657.891 686.143C657.555 685.662 657.249 685.162 656.973 684.643C656.565 683.948 656.205 683.226 655.898 682.48C655.037 680.432 654.53 678.251 654.4 676.032C654.327 674.645 654.413 673.255 654.654 671.889C655.247 668.639 656.763 665.63 659.023 663.221C660.316 661.91 661.736 660.73 663.263 659.7C666.669 657.472 670.263 655.546 674.005 653.944C682.546 650.304 691.385 647.404 700.422 645.276C719.659 640.439 737.708 639.959 750.613 639.931C757.086 639.931 762.373 640.893 765.666 642.49C766.936 643.073 768.137 643.798 769.243 644.653L770.062 645.374C770.189 645.545 770.274 645.63 770.26 645.644Z" fill="#211F54"/>
<path d="M644.068 663.801C643.671 664.473 643.042 664.974 642.298 665.212C641.556 665.448 640.752 665.405 640.04 665.088C639.332 664.777 638.626 664.494 637.919 664.169C637.12 663.872 636.397 663.403 635.801 662.795C635.205 662.186 634.751 661.452 634.471 660.648C634.277 659.18 634.57 657.691 635.305 656.406C636.549 653.578 637.905 650.904 639.404 648.26C639.979 647.027 640.847 645.955 641.933 645.136C642.661 644.715 643.47 644.455 644.307 644.375C645.143 644.295 645.987 644.395 646.782 644.669C648.365 645.225 649.865 646.001 651.235 646.973C651.235 646.973 652.351 647.299 651.814 649.646C651.417 651.386 646.711 659.559 644.068 663.801Z" fill="#211F54"/>
<path d="M700.012 645.488C698.532 642.221 697.28 638.857 696.266 635.419C695.025 632.059 694.01 628.62 693.226 625.125C695.955 631.748 698.221 638.551 700.012 645.488Z" fill="#211F54"/>
<g opacity="0.3">
<path opacity="0.3" d="M799.138 696.973C812.016 684.089 812.016 663.201 799.138 650.318C786.26 637.434 765.382 637.434 752.504 650.318C739.627 663.201 739.627 684.089 752.504 696.973C765.382 709.856 786.26 709.856 799.138 696.973Z" fill="black"/>
</g>
<path d="M804.045 700.132C816.923 687.249 816.923 666.36 804.045 653.476C791.168 640.593 770.288 640.593 757.411 653.476C744.533 666.36 744.533 687.249 757.411 700.132C770.288 713.016 791.168 713.016 804.045 700.132Z" fill="#143C8B"/>
<path d="M780.861 704.37C775.405 704.37 770.074 702.752 765.539 699.72C761.003 696.688 757.469 692.378 755.382 687.337C753.295 682.295 752.75 676.747 753.815 671.395C754.88 666.042 757.508 661.126 761.366 657.269C765.224 653.411 770.139 650.784 775.489 649.722C780.84 648.659 786.384 649.207 791.423 651.297C796.461 653.388 800.768 656.926 803.796 661.465C806.824 666.003 808.439 671.339 808.437 676.796C808.425 684.108 805.516 691.117 800.346 696.287C795.177 701.456 788.169 704.363 780.861 704.37ZM780.861 650.635C775.686 650.635 770.627 652.171 766.325 655.046C762.023 657.923 758.669 662.01 756.69 666.794C754.709 671.576 754.191 676.839 755.2 681.916C756.21 686.994 758.702 691.658 762.361 695.319C766.019 698.979 770.681 701.472 775.757 702.482C780.831 703.491 786.092 702.973 790.872 700.993C795.653 699.012 799.739 695.657 802.614 691.352C805.489 687.048 807.023 681.987 807.023 676.81C807.02 669.868 804.262 663.211 799.357 658.301C794.451 653.391 787.799 650.629 780.861 650.621V650.635Z" fill="#0075FF"/>
<path d="M488.675 235.996C488.675 235.996 508.378 232.008 521.396 241.157C528.915 246.446 554.103 290.354 554.103 290.354L516.83 309.67L488.675 235.996Z" fill="#0075FF"/>
<path d="M519.178 308.453L525.481 332.493L485.368 375.114L494.372 395.83C494.372 395.83 549.057 361.411 556.421 350.495C563.785 339.578 559.092 323.189 557.284 317.193C555.475 311.197 549.425 292.814 549.425 292.814L519.178 308.453Z" fill="#FFBF9D"/>
<path d="M437.522 423.321C437.522 423.321 452.745 405.32 454.201 403.694C455.657 402.067 474.272 385.65 474.272 385.65L486.187 374.337L499.53 390.118L493.368 396.934C493.368 396.934 491.954 402.591 490.173 405.009C488.392 407.427 474.626 408.219 474.626 408.219L472.604 414.765L474.385 417.495L478.229 417.071C478.229 417.071 478.229 420.96 475.855 421.681C474.058 422.078 472.191 422.034 470.413 421.554C470.019 422.297 469.387 422.887 468.619 423.231C467.851 423.574 466.99 423.65 466.173 423.448C465.716 423.306 465.281 423.097 464.887 422.826C463.058 421.627 461.668 419.865 460.929 417.806L459.996 415.289L458.979 420.55L462.752 424.071C463.025 424.321 463.216 424.649 463.298 425.01C463.38 425.372 463.349 425.751 463.211 426.094C463.073 426.438 462.834 426.733 462.524 426.937C462.215 427.14 461.851 427.246 461.48 427.238H460.944C458.703 426.583 456.597 425.534 454.724 424.141C453.127 423.08 452.548 420.634 452.505 418.711L453.07 416.463C453.07 416.463 442.95 424.297 440.349 425.315C438.329 426.092 437.522 423.321 437.522 423.321Z" fill="#FFBF9D"/>
<path d="M545.41 335.322C542.155 334.21 538.825 333.331 535.446 332.692C532.026 332.298 528.582 332.152 525.142 332.253C526.109 331.909 527.126 331.723 528.152 331.701C530.622 331.504 533.108 331.589 535.558 331.956C538.005 332.328 540.401 332.983 542.697 333.908C543.666 334.24 544.581 334.718 545.41 335.322Z" fill="#FF9A6C"/>
<path d="M459.049 402.986C459.12 403.1 458.356 403.651 457.381 404.782C456.13 406.277 455.171 407.995 454.554 409.844C453.932 411.689 453.459 413.581 453.141 415.501C453.055 416.328 452.864 417.14 452.575 417.919C452.439 417.095 452.439 416.254 452.575 415.43C452.77 413.425 453.202 411.451 453.861 409.548C454.504 407.612 455.577 405.847 456.999 404.387C457.562 403.763 458.264 403.283 459.049 402.986Z" fill="#FF9A6C"/>
<path d="M465.933 402.364C465.933 402.476 465.241 402.943 464.251 403.919C462.968 405.201 461.958 406.731 461.283 408.416C459.686 412.404 459.869 416.024 459.643 415.995C459.411 415.246 459.344 414.454 459.446 413.676C459.497 411.775 459.885 409.899 460.591 408.134C461.3 406.354 462.436 404.775 463.898 403.537C464.467 402.981 465.167 402.577 465.933 402.364Z" fill="#FF9A6C"/>
<path d="M470.654 402.364C470.161 403.306 469.589 404.205 468.943 405.05C467.459 407.06 466.545 409.435 466.3 411.923C466.391 414.423 467.19 416.846 468.605 418.909C469.208 419.775 469.742 420.687 470.202 421.638C469.404 420.929 468.717 420.105 468.166 419.191C467.491 418.238 466.913 417.219 466.442 416.151C465.84 414.819 465.541 413.37 465.565 411.909C465.8 409.278 466.83 406.783 468.52 404.754C469.105 403.853 469.825 403.047 470.654 402.364Z" fill="#FF9A6C"/>
<path d="M554.103 290.355C553.883 290.525 553.646 290.672 553.396 290.793L551.29 291.966L543.432 296.209L517 310.039L516.632 310.236L516.492 309.84C516.053 308.652 515.601 307.38 515.078 306.107C510.724 294.229 506.78 283.482 503.898 275.591C502.484 271.774 501.268 268.648 500.42 266.386L499.474 263.882C499.336 263.6 499.236 263.3 499.176 262.992C499.35 263.253 499.492 263.532 499.601 263.826C499.869 264.378 500.237 265.24 500.689 266.272C501.608 268.407 502.865 271.533 504.378 275.407C507.403 283.156 511.445 293.932 515.77 305.852C516.237 307.139 516.689 308.398 517.183 309.586L516.661 309.388L543.191 295.77L551.163 291.769L553.326 290.722C553.564 290.562 553.827 290.438 554.103 290.355Z" fill="#263238"/>
<path d="M433.849 264.074C433.841 264.318 433.811 264.561 433.76 264.8L433.402 266.838C433.084 268.608 432.567 271.163 431.921 274.315C430.639 280.629 428.602 289.289 427.082 298.984C426.369 303.535 425.901 308.122 425.68 312.725C425.64 313.792 425.6 314.826 425.56 315.827C425.56 316.821 425.56 317.815 425.56 318.75C425.56 320.639 425.69 322.399 425.75 324C425.978 327.202 426.216 329.796 426.484 331.576C426.584 332.432 426.674 333.108 426.734 333.635C426.775 333.874 426.791 334.117 426.783 334.36C426.716 334.126 426.666 333.887 426.634 333.644C426.544 333.128 426.426 332.452 426.286 331.656C425.958 329.887 425.66 327.291 425.382 324.079C425.303 322.469 425.123 320.709 425.133 318.81C425.133 317.815 425.133 316.881 425.133 315.827C425.133 314.773 425.193 313.778 425.223 312.714C425.417 308.094 425.865 303.486 426.564 298.914C428.095 289.19 430.191 280.54 431.534 274.256C432.219 271.153 432.776 268.628 433.173 266.808C433.362 265.974 433.512 265.296 433.621 264.819C433.668 264.563 433.745 264.312 433.849 264.074Z" fill="#263238"/>
<path opacity="0.3" d="M430.884 277.49C420.418 294.076 418.335 311.018 418.899 330.625L426.721 334.361C425.385 316.824 427.34 293.747 430.884 277.49Z" fill="black"/>
<path d="M307.25 8.7571H128.502V330.009H307.25V8.7571Z" fill="#F7F9FC"/>
<path d="M298.269 18.0814H135.649V320.449H298.269V18.0814Z" fill="white"/>
<path d="M314.813 332.909L307.25 330.009V3.31567H314.813V332.909Z" fill="#DCDDEB"/>
<path d="M175.517 213.387L217.744 174.116C223.097 169.137 230.094 163.782 236.978 166.228C240.283 167.409 242.776 170.234 246.024 171.594C252.502 174.296 259.914 170.394 264.91 165.444C269.905 160.494 273.823 154.297 279.867 150.706C285.91 147.117 295.287 147.58 298.28 153.937V196.685L236.902 222.966L175.517 213.387Z" fill="white"/>
<path d="M135.649 188.824C151.211 182.476 166.744 187.88 177.877 200.454C180.227 203.108 182.362 206.122 185.582 207.624C189.944 209.608 195.024 208.124 199.745 207.624C206.283 206.977 212.872 208.154 218.784 211.021C224.694 213.889 229.698 218.337 233.238 223.872L181.304 249.436L135.668 249.105L135.649 188.824Z" fill="#DCDDEB"/>
<path d="M298.269 189.032C288.014 184.083 278.997 190.072 269.535 196.411C260.074 202.75 251.293 210.883 240.198 213.416C232.785 215.125 224.844 214.171 217.677 216.732C203.088 221.927 194.646 240.472 179.17 241.359C170.776 241.841 163.24 236.739 155.743 232.923C148.246 229.107 142.335 225.469 135.649 230.581V320.421H298.269V189.032Z" fill="#EFF0F7"/>
<path d="M301.801 105.06H135.649V108.281H301.801V105.06Z" fill="#DCDDEB"/>
<path d="M301.801 177.063H135.649V180.285H301.801V177.063Z" fill="#DCDDEB"/>
<path d="M301.801 249.068H135.649V252.289H301.801V249.068Z" fill="#DCDDEB"/>
<path d="M212.843 106.665V329.008H221.058V106.665H212.843Z" fill="#DCDDEB"/>
<path d="M170.682 18.0814H166.961V106.675H170.682V18.0814Z" fill="#DCDDEB"/>
<path d="M202.787 18.0814H199.066V106.675H202.787V18.0814Z" fill="#DCDDEB"/>
<path d="M234.882 18.0814H231.161V106.675H234.882V18.0814Z" fill="#DCDDEB"/>
<path d="M266.986 18.0814H263.266V106.675H266.986V18.0814Z" fill="#DCDDEB"/>
<path d="M128.511 3.31567H120.948V332.002H128.511V3.31567Z" fill="#DCDDEB"/>
<path d="M314.813 0H120.948V8.76674H314.813V0Z" fill="#DCDDEB"/>
<path d="M319.931 333.987H115.584V342.149H319.931V333.987Z" fill="#DCDDEB"/>
<path d="M307.25 330.009L319.931 333.986H115.584L128.501 330.009H307.25Z" fill="#DCDDEB"/>
<path d="M218.318 668.334C218.995 673.903 226.443 676.332 231.046 673.805C233.318 672.452 235.055 670.359 235.966 667.877C236.875 665.394 236.903 662.674 236.044 660.173C240.102 663.182 246.586 660.403 248.27 655.632C249.955 650.862 247.604 645.37 243.699 642.153C240.549 639.561 235.65 638.28 232.479 640.852C234.065 635.382 229.734 629.156 224.114 628.117C218.493 627.077 212.565 630.754 210.346 636.027C208.125 641.3 209.318 647.657 212.729 652.252C209.394 650.84 205.216 653.258 204.21 656.737C203.204 660.217 204.987 664.123 207.929 666.245C210.993 668.253 214.71 669.017 218.318 668.378" fill="#DCDDEB"/>
</g>
</g>
</g>
</g>
<defs>
<filter id="filter0_d_30312_1143" x="126.854" y="380.011" width="547.971" height="266.271" filterUnits="userSpaceOnUse" color-interpolation-filters="sRGB">
<feFlood flood-opacity="0" result="BackgroundImageFix"/>
<feColorMatrix in="SourceAlpha" type="matrix" values="0 0 0 0 0 0 0 0 0 0 0 0 0 0 0 0 0 0 127 0" result="hardAlpha"/>
<feOffset dx="10.9288" dy="-8.7431"/>
<feComposite in2="hardAlpha" operator="out"/>
<feColorMatrix type="matrix" values="0 0 0 0 0.127552 0 0 0 0 0.123438 0 0 0 0 0.329167 0 0 0 0.06 0"/>
<feBlend mode="normal" in2="BackgroundImageFix" result="effect1_dropShadow_30312_1143"/>
<feBlend mode="normal" in="SourceGraphic" in2="effect1_dropShadow_30312_1143" result="shape"/>
</filter>
<clipPath id="clip0_30312_1143">
<rect width="777.98" height="735.94" fill="white" transform="translate(0.0200195)"/>
</clipPath>
<clipPath id="clip1_30312_1143">
<rect width="777.98" height="735.94" fill="white" transform="translate(0.0200195)"/>
</clipPath>
<clipPath id="clip2_30312_1143">
<rect width="777.98" height="735.927" fill="white" transform="translate(0.0200195 0.00648499)"/>
</clipPath>
</defs>
</svg>
